<svg width="86" height="113" viewBox="0 0 86 113" fill="none" xmlns="http://www.w3.org/2000/svg">
<mask id="mask0_4_87" style="mask-type:luminance" maskUnits="userSpaceOnUse" x="0" y="0" width="86" height="113">
<path d="M85.5115 0.0264893H0.488495V112.973H85.5115V0.0264893Z" fill="white"/>
</mask>
<g mask="url(#mask0_4_87)">
<path d="M0.488495 0.0264893V35.2265H6.55348V6.09149H79.4425V70.4575C79.4425 75.2437 78.4998 79.983 76.6682 84.4048C74.8366 88.8266 72.152 92.8444 68.7677 96.2287C65.3834 99.613 61.3656 102.297 56.9438 104.129C52.5219 105.96 47.7827 106.903 42.9965 106.903C38.2104 106.903 33.471 105.96 29.0492 104.129C24.6274 102.297 20.6096 99.613 17.2253 96.2287C13.841 92.8444 11.1564 88.8266 9.32479 84.4048C7.49321 79.983 6.55049 75.2437 6.55049 70.4575V65.4145H29.4065V70.4575C29.4065 74.0602 30.8377 77.5154 33.3852 80.0628C35.9326 82.6103 39.3878 84.0415 42.9905 84.0415C46.5932 84.0415 50.0484 82.6103 52.5958 80.0628C55.1433 77.5154 56.5745 74.0602 56.5745 70.4575V28.9525H29.4095V35.2265H50.3095V70.4575C50.3095 72.3973 49.5389 74.2576 48.1673 75.6293C46.7956 77.0009 44.9353 77.7715 42.9955 77.7715C41.0557 77.7715 39.1954 77.0009 37.8237 75.6293C36.4521 74.2576 35.6815 72.3973 35.6815 70.4575V59.1355H6.54948H0.484497V70.4545C0.484497 81.7293 4.96338 92.5422 12.9358 100.514C20.9083 108.487 31.7212 112.966 42.996 112.966C54.2707 112.966 65.0837 108.487 73.0562 100.514C81.0286 92.5422 85.5075 81.7293 85.5075 70.4545V0.0264893H0.488495Z" fill="#382BF0"/>
<path d="M43.0045 89.2645C38.0163 89.2605 33.2333 87.2777 29.7054 83.7513C26.1774 80.2248 24.1926 75.4427 24.1865 70.4545H17.9235C17.9235 77.1053 20.5655 83.4837 25.2684 88.1866C29.9712 92.8894 36.3497 95.5315 43.0005 95.5315C49.6513 95.5315 56.0298 92.8894 60.7326 88.1866C65.4355 83.4837 68.0775 77.1053 68.0775 70.4545V17.4545H17.9235V35.2205H24.1865V23.7205H61.8055V70.4505C61.8023 75.437 59.8209 80.2186 56.2961 83.7459C52.7713 87.2731 47.991 89.2579 43.0045 89.2645Z" fill="#BA9FFB"/>
</g>
</svg>
