<svg width="250" height="200" viewBox="0 0 250 200" fill="none" xmlns="http://www.w3.org/2000/svg">
<path fill-rule="evenodd" clip-rule="evenodd" d="M143.822 200C173.642 200 199.81 177.818 185.114 147.69C170.418 117.562 225.024 118.535 241.064 97.7127C260.626 72.3186 254.961 -35.4751 129.381 30.2412C109.265 40.7682 57.6015 19.4114 40.4646 30.0083C20.2927 42.4818 -8.08797 68.0236 20.2927 94.1875C34.2725 107.075 -15.8483 140.526 6.10362 170.489C27.5231 199.726 42.5379 171.855 75.1488 177.818C107.76 183.782 121.675 200 143.822 200Z" fill="#382BF0"/>
<path d="M109.211 147.586C109.211 147.586 116.077 144.356 118.64 142.109C121.203 139.862 124.39 134.279 124.39 134.279C124.39 134.279 159.395 159.56 182.219 155.953C187.478 155.123 197.725 151.627 198.379 145.468C200.163 128.65 175.475 124.353 180.868 115.824C184.16 110.618 194.385 118.366 194.385 118.366L236.799 139.228C236.799 139.228 222.146 175.347 186.588 176.795C142.846 178.575 109.211 147.586 109.211 147.586Z" fill="white"/>
<path fill-rule="evenodd" clip-rule="evenodd" d="M75.5839 6.13494C75.1858 5.97866 73.0479 3.36096 70.3338 2.88453C69.1005 2.66803 70.2199 4.23847 68.8625 4.2526C64.82 4.29469 58.2504 3.5352 57.0334 4.2526C56.1289 4.78409 58.1209 6.64083 57.0334 6.72607C46.7729 7.53032 31.1199 17.775 27.7238 22.7452C26.643 24.3269 35.3842 21.6433 33.9915 22.4253C32.4283 23.3029 30.6947 29.0498 29.6581 33.4883C28.9405 36.5448 28.4887 40.4783 28.3292 44.7573C28.1963 48.4516 28.2495 49.0629 28.7811 51.0829C29.3923 53.342 29.8707 54.0064 30.6947 53.6875C30.987 53.5812 31.1199 53.1825 31.1199 52.4383C31.1199 51.8536 31.4388 50.0995 31.8375 48.5314L32.5285 45.7141L32.8209 46.8836C33.193 48.239 35.3724 52.4383 37.3391 55.4948C37.4452 55.657 37.9016 55.4507 38.3131 54.4559C38.6881 53.5495 38.5359 52.1014 39.173 50.5494C40.6242 47.0141 43.4736 42.4177 46.7729 38.7384C51.6491 33.3007 53.2669 27.0076 57.8378 21.956C66.368 12.5286 77.074 6.71997 75.5839 6.13494Z" fill="white"/>
<path fill-rule="evenodd" clip-rule="evenodd" d="M34.1128 23.708C32.7444 24.8083 30.7132 33.7335 30.6784 33.8827C29.9608 36.9391 29.269 47.5531 29.9761 49.5626C30.6832 51.5721 32.6631 44.3282 32.6631 44.3282C32.6631 44.3282 35.6557 52.099 38.2999 54.2296C38.4129 54.3206 35.1569 44.6155 34.1128 38.9499C32.7345 31.4709 34.8915 23.0818 34.1128 23.708Z" fill="#E7EAEE"/>
<path fill-rule="evenodd" clip-rule="evenodd" d="M85.1153 180.019C87.6668 179.46 91.9719 177.517 93.6202 176.852C95.2686 176.188 100.291 169.095 102.099 161.095C103.401 155.195 104.065 146.796 103.321 145.388C103.211 145.188 102.809 141.369 103.879 142.616C106.258 145.388 109.082 149.739 117.992 141.941C120.419 139.818 123.635 137.077 122.788 134.653C120.419 127.873 110.147 114.221 108.581 113.187C106.709 111.95 97.2453 113.001 83.162 108.844C67.1904 104.13 60.5399 90.2488 54.2897 92.0557C49.2351 93.5171 37.1248 102.497 34.0855 108.184C19.7369 135.032 37.1248 153.845 41.0847 159.249L44.9295 160.909L45.0624 164.338L45.2484 166.49C45.5939 170.61 45.7268 170.982 47.5873 172.364C52.2384 175.899 61.4078 179.195 69.7001 180.364C73.5539 180.896 81.9259 180.71 85.1153 180.019Z" fill="white"/>
<path fill-rule="evenodd" clip-rule="evenodd" d="M46.4417 163.083L46.6277 165.235C46.9732 169.355 47.1061 169.727 48.9666 171.109C51.7104 173.194 56.0267 175.196 60.8077 176.728C64.1311 177.792 67.679 178.629 71.0794 179.109C74.9332 179.641 83.3052 179.455 86.4946 178.764C88.071 178.422 75.1038 168.235 67.4647 171.109C61.5983 173.317 47.7712 156.478 53.3931 152.079C59.6996 147.144 48.1433 127.68 47.7712 123.454C47.3991 119.228 45.9338 118.219 45.891 118.367C45.8482 118.515 45.8482 119.021 45.9633 120.239C46.4591 125.49 46.4417 163.083 46.4417 163.083Z" fill="#E7EAEE"/>
<path fill-rule="evenodd" clip-rule="evenodd" d="M45.0572 122.248C45.6152 122.139 46.1555 122.503 46.2641 123.061C48.27 133.367 56.7548 140.344 71.9269 143.992C87.1891 147.662 97.585 147.464 103.063 143.547C103.525 143.216 103.18 146.048 102.842 146.265C99.2689 148.556 87.1223 151.974 72.6269 148.885C54.0932 144.934 45.391 129.35 44.2435 123.455C44.1349 122.897 44.4992 122.356 45.0572 122.248Z" fill="#BA9FFB"/>
<path fill-rule="evenodd" clip-rule="evenodd" d="M37.3283 103.654C37.8217 103.372 56.2299 124.469 81.4922 129.245C106.755 134.02 112.871 130.983 113.854 124.469C113.939 123.907 114.463 123.521 115.026 123.605C115.588 123.69 115.975 124.215 115.89 124.777C114.644 133.032 102.954 134.996 81.146 131.274C59.6116 127.599 44.8476 118.869 36.9461 105.059C36.6638 104.566 36.8349 103.937 37.3283 103.654Z" fill="#BA9FFB"/>
<path fill-rule="evenodd" clip-rule="evenodd" d="M143.358 102.485C142.667 102.245 141.923 101.714 141.445 101.102L140.647 100.119L143.465 97.3284C147.797 93.0759 151.119 88.7172 153.99 83.5345C154.946 81.8069 157.365 76.0395 157.365 75.4814C157.365 75.2953 157.657 74.5511 158.003 73.7804C158.534 72.6641 158.933 72.2389 160.076 71.601C161.431 70.8037 162.973 70.5379 163.637 70.9897C164.913 71.8402 164.913 74.5246 163.637 79.1491C162.229 84.2255 160.342 87.8667 156.435 93.1025C155.823 93.8999 154.681 95.468 153.857 96.5576C151.651 99.4812 150.216 100.89 148.275 101.98C146.362 103.043 145.245 103.176 143.358 102.485ZM162.441 100.093L164.355 100.943C164.752 101.126 169.129 103.229 174.387 105.756C182.865 109.829 193.631 115.003 193.697 115.003C193.803 115.003 194.302 113.849 194.415 112.504C194.68 109.607 195.664 105.674 196.807 102.936C197.338 101.714 197.763 100.186 197.763 100.053C197.763 99.9922 197.331 99.8179 196.624 99.5326C195.782 99.193 194.55 98.696 193.192 98.046C186.494 94.8301 173.391 88.2654 171.77 87.282C170.176 86.3517 169.857 86.272 169.857 86.8833C169.857 87.6806 168.235 91.375 166.986 93.3683C166.322 94.458 165.019 96.4248 164.089 97.7271L162.441 100.093ZM193.245 110.219C194.007 110.66 192.687 111.308 192.368 111.415C190.49 111.574 188.279 111.221 186.468 110.166C185.521 109.494 178.063 105.351 173.116 102.602C170.854 101.346 169.117 100.381 168.767 100.172C167.651 99.5078 166.588 98.7902 166.401 98.5776C165.843 97.86 166.375 97.541 167.943 97.6739C168.886 97.7538 191.599 109.265 193.245 110.219ZM85.206 179.8C87.2561 179.351 90.4385 178.008 92.465 177.153C92.9606 176.944 93.387 176.764 93.7109 176.633C95.3593 175.969 100.382 168.876 102.189 160.876C103.492 154.976 104.156 146.577 103.412 145.169C102.963 144.353 105.629 147.09 107.614 149.128C108.216 149.746 108.755 150.299 109.126 150.67C120.714 162.178 137.963 171.428 155.877 175.76C164.807 177.939 171.159 178.71 179.69 178.71C194.016 178.71 205.311 175.893 215.571 169.7C216.058 169.406 216.515 169.135 216.95 168.878C220.526 166.761 222.657 165.499 228.487 158.936C235.028 151.574 240.846 134.484 242.786 128.584C243.637 125.926 245.71 115.355 245.71 112.717C245.71 109.594 244.62 108.119 243.132 106.604C240.501 104.026 236.939 103.096 233.989 104.212L232.607 104.744L232.182 103.335C231.57 101.209 230.295 99.5078 228.328 98.2321C225.404 96.2919 224.979 96.159 222.348 96.159C220.301 96.159 219.743 96.2653 218.441 96.8766L216.926 97.5676L216.607 96.6108C215.996 94.644 213.945 91.9023 212.355 91.1092C210.944 90.4058 208.502 90.3413 206.8 90.6574C203.079 91.3484 200.421 93.0759 199.331 95.4945C199.013 96.2387 198.614 96.8234 198.454 96.8234C198.322 96.8234 193.086 95.3611 186.84 92.597C185.812 92.1405 184.844 91.7116 183.934 91.3083L183.92 91.3019L183.901 91.2936L183.87 91.2798L183.867 91.2786C172.651 86.3074 170.22 85.2299 170.441 83.88C170.627 82.7371 170.574 82.0993 170.255 81.1159C169.697 79.4681 169.059 79.0162 167.252 79.0162C165.817 79.0162 165.817 79.0162 165.976 78.2986C166.827 74.2322 166.8 71.8934 165.896 70.405C165.285 69.4216 164.568 69.0229 162.92 68.7837C161.963 68.6508 161.511 68.7306 160.448 69.3153C159.73 69.6874 159.119 69.9532 159.066 69.9C159.013 69.8469 159.199 68.3851 159.491 66.6575C161.671 53.8735 159.987 42.8589 154.432 31.1646C154.379 31.0527 154.317 30.9204 154.247 30.769C152.558 27.1435 145.768 12.5653 126.349 5.2094C125.47 4.87645 124.638 4.5545 123.838 4.24509C117.224 1.68464 112.826 -0.0175278 102.216 0.000136184C90.3235 0.0199348 86.2957 1.70112 78.4552 5.28914C77.3655 5.79412 76.4087 6.08648 76.3289 5.98016C76.2492 5.84727 75.7442 5.52834 75.2393 5.26256C74.7343 4.99678 73.6446 4.33233 72.8472 3.80078C70.5615 2.25926 69.1529 1.62139 68.4353 1.78086C67.6114 1.99348 67.6114 2.6845 68.4353 3.00344C68.7808 3.13633 69.1795 3.58815 69.339 4.03998C69.6845 4.99678 70.0831 5.10309 70.3223 4.30576C70.4287 4.0134 70.5881 3.80078 70.6679 3.85393C70.6981 3.86905 70.7993 3.91642 70.9537 3.98871L70.9538 3.98875C71.3423 4.17061 72.0675 4.51013 72.8472 4.89047C73.9369 5.42203 75.1329 5.98016 75.4519 6.11305C76.0366 6.32568 75.8505 6.48514 73.3256 7.97351C63.4652 13.7675 55.4387 22.7774 50.9471 33.0365C50.256 34.578 49.6447 35.5348 49.0069 36.0663C47.3856 37.4218 44.1963 41.2756 43.4521 42.7906C43.0534 43.6145 42.2029 44.8902 41.5385 45.6344C40.9006 46.3786 40.2096 47.3354 39.9704 47.734C39.7578 48.1593 39.5451 48.4516 39.4654 48.3985C39.4122 48.3188 39.492 47.0164 39.678 45.5015C40.0767 41.9666 40.0767 41.0364 39.7578 40.9567C39.2794 40.8238 38.5883 42.6842 38.296 44.9965C38.0834 46.4052 38.0302 48.5314 38.1631 50.7108L38.3226 54.1659L36.4355 51.1094C35.786 50.0865 35.1464 49.0635 34.6925 48.3375L34.6925 48.3374L34.6916 48.3361L34.6915 48.3358C34.403 47.8743 34.1896 47.5331 34.0967 47.3885C33.4056 46.3786 33.007 44.8636 33.2993 44.3587C33.4588 44.0663 33.4322 43.9334 33.1664 43.9334C32.6083 43.9334 31.5186 45.7141 30.801 47.7606C30.4555 48.7174 30.11 49.5148 30.0037 49.5148C29.605 49.5148 29.791 39.9999 30.2163 36.9434C31.0934 30.9102 33.4056 23.4684 34.4422 23.4684C34.6548 23.4684 34.8408 23.3621 34.8408 23.2026C34.8408 22.7242 34.1498 22.9103 33.5917 23.5216C32.3425 24.8771 30.6947 29.0498 29.6582 33.4883C28.9406 36.5448 28.4887 40.4783 28.3293 44.7573C28.1964 48.4516 28.2495 49.0629 28.7811 51.0829C29.3924 53.342 29.8708 54.0064 30.6947 53.6875C30.9871 53.5812 31.1199 53.1825 31.1199 52.4383C31.1199 51.8536 31.4389 50.0995 31.8375 48.5314L32.5286 45.7141L32.8209 46.8836C33.193 48.239 35.3724 52.4383 37.3392 55.4948C38.6946 57.5679 38.7212 57.7008 39.173 60.9433C39.4122 62.7771 40.1564 67.2377 41.884 74.0993C43.4104 80.162 51.9915 86.1761 54.1341 87.6778L54.1344 87.6781C54.4166 87.8758 54.587 87.9952 54.6148 88.0261C54.8806 88.3185 55.2527 88.478 55.4653 88.3982C55.7045 88.3185 55.8374 88.4248 55.8374 88.7172C55.8374 88.9829 56.0234 89.3285 56.2361 89.4879C56.5018 89.674 56.6879 90.3916 56.741 91.6407C56.8739 94.1391 58.7344 98.9231 60.1696 100.491C61.0998 101.501 63.04 101.926 65.1928 101.554C66.6014 101.342 67.0001 101.182 66.8672 100.863C66.7875 100.651 67.2925 100.916 67.9835 101.448C76.0632 107.614 84.2492 111.308 93.4451 112.903C97.0066 113.514 102.907 113.86 106.123 113.621C108.967 113.435 108.967 113.435 108.834 113.993C108.648 114.737 108.887 115.189 112.794 121.807C115.903 127.043 116.169 127.388 119.624 130.923C126.96 138.498 134.96 144.371 144.023 148.916C152.554 153.169 166.175 156.703 178.627 157.82C191.079 158.936 200.022 147.507 199.996 144.584C199.943 140.571 199.385 137.939 198.029 135.388C196.7 132.916 195.823 132.066 191.837 129.408C187.398 126.458 184.66 124.039 182.853 121.461C181.71 119.84 181.285 118.006 181.285 117.023C181.285 116.385 182.109 114.95 183.332 114.657C184.448 114.365 184.66 114.391 185.91 115.003C186.654 115.348 188.594 116.252 190.189 117.023C191.81 117.767 193.378 118.511 193.697 118.67C194.637 118.932 195.035 120.772 195.25 121.77C195.298 121.993 195.337 122.173 195.371 122.285C195.743 123.667 197.504 125.452 198.64 126.059C200.636 127.126 205.551 127.269 206.907 125.807C207.252 125.435 208.398 124.977 208.634 125.116C208.87 125.254 209.723 126.405 209.723 127.335C209.75 128.93 210.574 130.391 212.328 131.853C215.65 134.617 218.228 135.282 220.833 134.059C222.188 133.421 223.299 133.172 223.299 133.172C223.299 133.172 224.407 134.586 224.474 135.069C224.996 138.845 230.587 140.428 232.075 140.588C232.416 140.622 233.08 140.476 233.754 140.328L233.755 140.328C234.656 140.13 235.576 139.927 235.77 140.145C236.149 140.574 229.418 151.707 228.487 153.115C219.637 166.404 202.415 174.537 181.338 175.388C167.651 175.946 150.827 172.119 136.236 165.155C126.907 160.664 118.641 155.162 109.791 147.454C108.249 146.125 106.468 144.61 105.83 144.079C105.193 143.574 103.678 141.846 102.508 140.252C100.541 137.594 99.4251 136.637 99.4251 137.541C99.4251 137.939 100.701 140.385 102.163 142.803C102.747 143.76 103.119 144.424 102.987 144.318C102.854 144.212 102.428 146.125 102.03 148.571C100.727 156.411 98.5747 164.145 96.3953 168.956C95.1993 171.56 92.906 173.506 92.215 174.037C89.6635 175.977 85.8438 176.849 80.5548 177.381C73.8572 178.045 63.9968 176.557 56.4753 173.74C54.4819 172.996 49.3524 170.843 49.0069 170.604C48.9862 170.583 48.8686 169.82 48.7045 168.754L48.7044 168.754L48.7042 168.752L48.7041 168.752L48.704 168.751C48.6577 168.45 48.6077 168.125 48.555 167.786C47.5982 161.222 46.2693 135.946 46.2693 124.252C46.2693 119.415 46.2162 118.352 45.8973 118.352C45.2328 118.352 44.967 118.989 44.6747 121.275C44.0102 126.484 44.1431 153.674 44.8607 159.388L45.0202 160.69L44.1165 160.185C42.7345 159.388 37.4721 154.046 35.6382 151.574C34.0857 149.461 33.1629 146.754 32.4726 144.73C32.312 144.259 32.164 143.825 32.0236 143.444C28.1698 132.759 29.5253 120.77 34.8408 109.979C39.3591 100.784 44.9139 95.6806 53.0467 93.2088C54.3756 92.8102 55.545 92.3849 55.6779 92.2786C56.1829 91.8002 52.9404 92.0394 51.1597 92.5975C45.3657 94.3783 39.3059 99.242 35.1864 105.461C29.3924 114.179 26.7877 127.042 28.6216 138.019C29.0469 140.624 30.7744 146.258 31.2528 146.657C31.2952 146.699 31.5138 147.158 31.8444 147.852C32.7585 149.769 34.5289 153.483 35.7977 155.162C37.3392 157.262 41.9903 161.833 43.9305 163.242L45.1531 164.119L45.3391 166.271C45.6846 170.391 45.8175 170.763 47.678 172.145C52.3291 175.68 61.4985 178.976 69.7908 180.145C73.6446 180.677 82.0166 180.491 85.206 179.8ZM175.039 154.843C159.598 153.488 140.94 146.125 127.438 134.75C121.751 129.939 114.362 120.584 111.438 115.401C110.827 114.338 110.375 113.833 109.844 113.7C109.286 113.541 109.764 113.381 112.05 113.009C121.697 111.362 131.079 107.348 138.654 101.634L139.77 100.81L140.089 101.581C140.807 103.308 143.571 105.063 145.618 105.063C146.441 105.063 149.206 103.813 150.88 102.671L152.023 101.9L152.953 102.83C153.804 103.681 153.963 103.734 155.558 103.734C157.392 103.734 159.598 102.91 160.82 101.74L161.485 101.129L163.372 102.378C164.382 103.096 167.199 104.664 169.617 105.913C173.232 107.774 177.059 109.926 180.7 112.159L181.285 112.531L180.727 113.275C180.142 114.072 179.053 115.587 179.053 117.9C179.053 120.504 181.761 125.184 186.946 128.398C191.019 130.923 198.029 135.889 197.763 143.149C197.731 144.026 196.753 146.205 195.451 148.172C194.601 149.421 192.235 151.282 190.082 152.371C186.415 154.205 179.956 155.268 175.039 154.843ZM33.3259 35.5348C34.0435 35.6943 34.5219 35.9335 34.4156 36.0398C34.0701 36.3853 32.2362 36.2258 31.811 35.8006C31.1465 35.1627 31.306 34.7109 32.2362 34.5248C32.7146 34.4451 33.4322 34.0464 33.8309 33.6478C34.2296 33.2491 34.5751 33.063 34.5751 33.1959C34.5751 33.5415 33.2462 34.764 32.5817 35.0298C32.1565 35.2159 32.2894 35.2956 33.3259 35.5348ZM43.9039 35.96C44.6747 35.5348 44.5152 35.2424 43.6116 35.3753C42.7079 35.5082 42.6548 35.4019 43.2395 34.4982C43.4787 34.1527 43.6116 33.6478 43.5584 33.382C43.4787 33.0365 43.2926 33.1959 42.8674 34.0464C42.5484 34.6577 42.0966 35.1627 41.884 35.1627C41.2195 35.1627 41.1664 35.6943 41.8043 35.9335C42.6282 36.279 43.266 36.279 43.9039 35.96ZM34.708 21.4485C34.0701 21.5548 32.0767 22.3522 30.3226 23.2292C28.5419 24.0797 27.0269 24.7973 26.9206 24.7707C24.2097 24.4784 27.9837 19.9601 34.8408 15.3356C41.4056 10.8971 45.8441 8.55822 49.9637 7.36221C52.5417 6.61803 55.4387 6.51172 56.2626 7.12301C56.7145 7.46853 56.555 7.4951 54.5882 7.52168C50.3358 7.52168 45.4189 9.70107 37.4189 15.0432C33.2728 17.8073 28.4622 21.7674 28.4622 22.4053C28.4622 22.5382 29.2329 22.2724 30.1897 21.8472C32.2362 20.9169 34.3359 20.4385 35.2661 20.6512C36.2495 20.9169 36.0369 21.2625 34.708 21.4485ZM44.9936 23.7342C47.4919 23.2292 47.5982 23.2026 47.5982 22.9369C47.5982 22.804 46.6414 22.6711 45.4454 22.6179L43.2926 22.5382L45.286 20.2791C46.3757 19.0299 47.6514 17.7808 48.1032 17.4884C49.0866 16.8505 49.1398 16.3987 48.3424 16.1329L47.7311 15.9469L48.3956 15.7077C48.7677 15.5748 49.4587 15.5216 49.9371 15.6014C50.6547 15.7077 50.8142 15.6545 50.7344 15.2824C50.6547 14.9103 50.3623 14.8306 49.06 14.8572C45.2594 14.9103 43.6381 15.9203 46.6149 16.3987C47.4388 16.5316 48.1298 16.7442 48.1298 16.8771C48.1298 16.9834 47.9969 17.0897 47.8374 17.0897C47.3325 17.0897 43.0534 21.4219 42.5219 22.485C41.6979 24.0531 42.1498 24.2923 44.9936 23.7342ZM62.535 13.422C61.7643 13.4751 61.5782 13.608 61.6314 13.9801L61.6396 14.0342L61.6396 14.0343C61.6694 14.2309 61.6866 14.3438 61.6425 14.3781C61.583 14.4244 61.412 14.3274 61.0101 14.0994L60.9403 14.0598C60.4354 13.7941 60.3822 13.6612 60.6746 13.4486C60.8606 13.2891 61.3656 13.0499 61.7643 12.9702L62.5084 12.7841L61.9503 12.1994C61.658 11.8539 61.4985 11.5349 61.5782 11.4286C61.7908 11.216 64.3955 11.5084 64.7676 11.8007C64.927 11.9336 65.1662 11.907 65.3257 11.7476C65.6978 11.3755 66.2028 11.6678 66.2028 12.2525C66.2028 12.5715 66.123 12.5981 65.8838 12.3589C65.6712 12.1462 65.4852 12.1462 65.246 12.3323C65.0333 12.5183 64.8739 12.5183 64.741 12.3057C64.6613 12.1728 64.1563 12.0399 63.6247 12.0399C63.1343 12.0399 62.9025 12.0399 62.8551 12.1334C62.8127 12.2172 62.9187 12.3762 63.1197 12.6778C63.5437 13.3402 63.5186 13.3422 62.5441 13.4212L62.535 13.422ZM58.4952 6.35225C58.4952 6.00674 58.1762 5.39545 57.7776 4.99678L57.0334 4.2526L61.0201 4.41207C63.226 4.51838 65.7244 4.75758 66.6014 4.99678C67.4785 5.2094 68.4885 5.36887 68.8606 5.36887C69.4187 5.36887 69.3124 5.26256 68.2758 4.70442C66.4685 3.7742 64.1563 3.32237 59.7178 3.00344C54.4022 2.63135 51.7178 3.13633 52.2228 4.46522C52.3025 4.731 52.7278 4.86389 53.3656 4.86389C54.668 4.86389 56.7942 5.63465 57.5118 6.35225C58.2826 7.12301 58.4952 7.12301 58.4952 6.35225ZM45.5252 76.7305C47.678 79.4946 50.5218 82.6308 51.8507 83.6939C52.648 84.3318 53.3391 84.8634 53.3922 84.8634C53.4188 84.8634 52.8341 83.6408 52.0899 82.1524C49.0866 76.1724 47.3325 70.219 46.5085 63.3619C46.3225 61.8469 46.0301 60.5712 45.7112 60.0396C45.0733 58.9765 45.0733 57.5944 45.7378 56.2921C46.0833 55.6011 46.2693 54.724 46.2693 53.7672V52.3054L44.9936 53.6343C43.7444 54.9367 42.5484 55.4682 42.5484 54.6709C42.5484 54.0862 44.5152 51.2689 45.5517 50.3918C46.3757 49.7008 46.482 49.4616 46.7477 47.3885C46.9338 46.1394 47.359 43.9334 47.7045 42.4716C48.0766 41.0098 48.2893 39.7607 48.2361 39.7075C48.0501 39.5215 41.8043 46.6948 40.9538 48.9832C40.767 49.4856 40.2627 50.3653 39.8641 50.8968L39.173 51.7841C39.173 51.7841 39.3877 53.0265 39.6249 54.5879C39.8645 56.1654 39.9769 57.2498 40.0771 58.2157C40.211 59.5078 40.323 60.5877 40.688 62.3519C41.1132 64.5313 41.5385 66.4183 41.6448 66.5512C41.7245 66.7107 42.07 67.9333 42.4155 69.2887C43.1597 72.292 44.4089 75.2688 45.5252 76.7305ZM153.378 101.873L152.82 101.315C152.82 101.315 162.084 89.5456 163.744 85.2089C165.01 81.8994 165.756 80.9609 166.762 80.9609C167.324 80.9609 167.784 81.0893 167.996 81.4083C168.368 81.9664 168.727 82.6574 168.248 85.0229C167.451 88.8501 166.228 91.375 162.561 96.8234C161.71 98.0726 160.621 99.4547 160.142 99.9331C159.026 100.97 156.514 102.033 155.053 102.272C154.122 102.405 153.857 102.352 153.378 101.873Z" fill="#00160A"/>
<path d="M226.973 127.873C230.279 118.864 229.779 116.945 229.205 116.757C229.205 116.757 227.942 117.474 227.384 118.989C226.348 121.833 222.8 129.275 221.471 130.604C219.903 132.172 219.903 132.172 218.308 132.172C216.713 132.172 212.114 129.771 211.488 127.403C210.486 123.616 214.8 110.458 214.906 109.714L214.189 109.209C213.71 109.661 207.487 128.531 199.305 123.614C198.368 123.051 196.381 120.398 196.222 118.989C195.336 114.896 199.4 100.584 200.091 97.6444C200.709 95.0131 203.929 92.571 207.89 92.571C213.976 92.571 213.158 97.8912 215.885 99.7659C217.093 100.597 219.078 99.0905 219.69 98.9762C223.119 98.3384 224.433 99.0811 226.946 101.076C228.886 102.616 230.322 105.663 231.902 106.737C232.779 107.333 233.711 106.518 234.016 106.365C235.266 105.737 237.949 106.205 238.693 106.737C239.784 107.213 242.458 109.783 242.88 111.277C244.794 118.051 238.75 133.07 236.468 135.887C232.691 140.55 223.666 136.882 226.973 127.873Z" fill="white"/>
<path fill-rule="evenodd" clip-rule="evenodd" d="M74.1762 103.188C81.4585 107.786 88.9675 110.789 97.5256 111.613C104.276 112.251 113.379 111.374 119.917 109.247C125.418 107.467 132.86 102.534 137.83 98.3609C147.478 90.2812 153.564 77.6608 156.222 64.2655C156.594 62.3785 157.162 57.6351 157.135 52.9308C157.135 47.4557 154.726 32.494 147.425 23.8671C132.367 6.07416 107.615 -1.94105 86.8134 4.90742C79.3094 7.37789 71.3198 11.8539 65.2866 17.701C57.6853 25.1162 52.0774 35.2159 49.8448 45.5281C47.506 56.425 50.5484 69.4482 55.8374 80.1325C60.0633 88.6374 67.0267 98.6428 74.1762 103.188ZM145.139 71.0694C140.143 86.086 127.119 97.3018 110.747 100.704C108.249 101.209 106.521 101.395 103.013 101.448C100.541 101.528 98.0697 101.501 97.5647 101.448C86.1096 100.066 77.3921 95.84 69.3656 87.8135C65.8573 84.2787 64.3689 82.3651 62.1895 78.591C58.761 72.611 56.9271 66.498 56.369 59.136C54.4554 33.9135 72.5017 12.8904 97.9102 10.711C107.877 9.86053 118.933 12.917 127.332 18.8704C130.442 21.0764 136.076 26.6578 137.83 29.2624C138.548 30.2989 145.511 40.4783 146.734 46.3254C148.302 53.9267 147.691 63.4416 145.139 71.0694Z" fill="white"/>
<path fill-rule="evenodd" clip-rule="evenodd" d="M157.145 52.9308C157.145 70.7702 148.706 90.2733 137.816 98.6026C132.62 102.576 125.83 107.388 119.917 109.247C111.251 111.972 97.5256 111.613 97.5256 111.613C97.5256 111.613 111.529 109.741 116.718 107.653C131.598 101.664 139.721 92.4713 144.737 83.651C154.638 66.2402 157.145 52.4974 157.145 52.9308Z" fill="#E7EAEE"/>
<path fill-rule="evenodd" clip-rule="evenodd" d="M97.8305 98.2586C90.7342 97.355 83.691 94.8301 78.0034 91.0826C74.628 88.8766 69.525 83.6939 67.0533 79.9996C63.5184 74.684 61.1795 68.9964 60.0367 62.8834C59.2128 58.4449 59.2394 51.6144 60.0633 47.6543C60.9138 43.6145 62.0035 40.5314 63.9436 36.6245C66.2028 32.1062 68.5948 28.784 72.1828 25.196C78.2957 19.0831 85.392 15.2027 93.8438 13.3422C96.5813 12.7575 106.495 12.2791 106.84 12.7309C106.92 12.8638 107.452 13.2093 108.01 13.5017C108.568 13.8206 110.056 14.9369 111.279 16.0266C113.113 17.6213 113.937 18.6312 115.531 21.1296C116.621 22.8305 117.498 24.3721 117.498 24.505C117.498 24.7973 118.349 25.3289 118.827 25.3289C119.491 25.3289 119.943 23.3355 120.076 19.8272C120.156 17.8871 120.315 16.2924 120.422 16.2924C120.794 16.2924 124.887 18.5515 126.8 19.8272C130.548 22.3256 134.295 25.8339 137.059 29.5016C138.309 31.1494 138.495 31.5747 138.495 32.5846C138.495 33.5149 138.76 34.2325 139.584 35.6677C141.657 39.2823 143.279 43.8271 144.262 48.8503C144.9 52.2257 144.9 58.6044 144.235 62.1393C142.428 71.8668 137.059 81.5411 130.069 87.6806C124.143 92.8633 117.844 96.0527 110.402 97.6208C107.85 98.1789 100.196 98.551 97.8305 98.2586ZM78.8273 80.0794C79.0665 79.8136 79.2259 79.4149 79.1462 79.2289C79.1223 79.173 78.7895 79.0165 78.3023 78.7875C77.1668 78.2537 75.1927 77.3256 74.3371 76.3584C70.9351 72.4781 69.686 69.5811 68.9152 63.6011C68.171 57.7805 68.7962 53.8456 70.1378 47.5214C70.7922 44.4364 72.5317 41.8881 73.6139 40.3027C74.3497 39.2247 74.7817 38.5919 74.3622 38.5381C73.3256 38.3786 73.1662 38.4584 72.0765 39.4949C69.7376 41.7274 68.6745 43.5082 67.5582 46.9367C65.8307 52.3054 65.4968 66.8144 68.9152 73.3551C72.3336 79.8959 78.216 80.7704 78.8273 80.0794ZM116.621 57.7539C116.17 61.8827 114.256 67.8535 112.023 70.4581C110.987 71.6807 107.182 73.7804 103.97 73.3551C100.868 72.9444 98.4418 71.4947 96.3687 68.3851C94.588 65.7007 93.6683 62.4423 93.0464 58.3386C91.9727 51.2523 96.661 43.0032 98.681 40.9567C100.727 38.857 102.189 38.1128 104.05 38.0863C105.857 38.0863 107.026 38.4849 108.86 39.7872C112.209 42.1261 117.498 49.7309 116.621 57.7539ZM80.794 35.774C81.3256 35.1627 81.4053 34.8703 81.2459 33.7275C81.1395 32.6644 80.9269 32.2391 80.3688 31.7873C79.3854 30.99 78.1628 30.99 77.2592 31.8405C76.6213 32.4517 76.5416 32.6644 76.6213 34.1262C76.701 35.6943 76.7542 35.8006 77.6313 36.279C78.8007 36.9168 79.9435 36.7308 80.794 35.774ZM97.3786 19.3754C92.5946 22.804 90.5215 24.2126 88.3687 25.5415C86.6678 26.6046 86.1362 26.6312 86.1362 25.6744C86.1362 25.1694 86.5083 24.6113 87.4651 23.7342L88.794 22.5116L86.2159 22.1661C83.3189 21.794 80.5017 20.9967 79.8904 20.3854C78.8804 19.3488 79.7575 19.1096 82.6279 19.6412C83.9036 19.8538 86.3754 20.1196 88.1295 20.1728L91.3189 20.3056L93.6312 18.6312C98.7075 14.9635 103.97 12.8904 106.495 13.5283C108.063 13.9004 107.877 14.3256 106.096 14.5382C104.05 14.7774 102.801 15.4685 97.3786 19.3754Z" fill="white"/>
<path d="M104.209 69.714C104.209 69.5811 104.369 69.4482 104.581 69.4482C104.794 69.4482 105.06 69.5811 105.139 69.714C105.219 69.8734 105.06 69.9798 104.767 69.9798C104.448 69.9798 104.209 69.8734 104.209 69.714Z" fill="white"/>
<path d="M105.804 69.4748C105.804 69.1824 106.468 68.9166 107.212 68.9166C107.797 68.9432 107.797 68.9432 107.292 69.3153C106.707 69.7671 105.804 69.8469 105.804 69.4748Z" fill="white"/>
<path d="M101.684 68.7837C101.605 68.5711 101.498 68.199 101.419 67.9864C101.339 67.7206 101.472 67.5877 101.817 67.5877C102.11 67.5877 102.349 67.7472 102.349 67.9598C102.349 68.1725 102.429 68.518 102.508 68.7572C102.615 69.0495 102.535 69.1824 102.242 69.1824C102.003 69.1824 101.737 68.9964 101.684 68.7837Z" fill="white"/>
<path d="M103.093 68.1193C102.96 67.322 103.252 67.0562 104.209 67.0562C104.502 67.0562 104.741 67.322 104.847 67.7738C105.06 68.5445 104.714 68.9166 103.784 68.9166C103.359 68.9166 103.173 68.7306 103.093 68.1193Z" fill="white"/>
<path d="M100.382 68.2522C99.877 67.8535 99.877 67.8535 100.435 67.8535C100.781 67.8535 101.02 68.013 101.02 68.2522C101.02 68.7306 101.02 68.7306 100.382 68.2522Z" fill="white"/>
<path d="M105.724 68.2256C105.379 67.8801 105.538 66.8436 105.963 66.6841C106.734 66.3917 107.08 66.5246 107.239 67.2157C107.345 67.6143 107.399 67.9598 107.345 67.9864C107.133 68.2256 105.884 68.3851 105.724 68.2256Z" fill="white"/>
<path d="M108.09 67.6675C108.01 67.5877 107.93 67.2422 107.93 66.9233C107.93 66.4715 108.143 66.2854 108.781 66.1525C109.339 66.0462 109.684 66.0994 109.844 66.312C110.109 66.7373 110.109 67.2688 109.87 67.4017C109.392 67.6675 108.276 67.8269 108.09 67.6675Z" fill="white"/>
<path d="M99.1594 66.8436C99.1594 66.5246 99.3986 66.2588 99.7441 66.1791C100.435 65.9931 100.409 65.9665 100.541 66.6575C100.595 67.0562 100.462 67.2157 99.9036 67.2688C99.3189 67.3485 99.1594 67.2422 99.1594 66.8436Z" fill="white"/>
<path d="M101.179 66.8701C100.807 66.4715 101.046 65.7273 101.551 65.7273C101.897 65.7273 102.083 65.9133 102.083 66.2323C102.083 66.7373 101.472 67.1625 101.179 66.8701Z" fill="white"/>
<path d="M102.774 66.0728C102.561 65.5678 103.013 65.1957 103.89 65.1957C104.289 65.1957 104.475 65.3552 104.475 65.7007C104.475 65.9931 104.236 66.2589 103.89 66.3652C103.013 66.5778 102.96 66.5778 102.774 66.0728Z" fill="white"/>
<path d="M110.455 65.9931C110.535 65.8602 110.668 65.7273 110.747 65.7273C110.827 65.7273 110.8 65.8602 110.721 65.9931C110.641 66.1525 110.508 66.2589 110.428 66.2589C110.349 66.2589 110.375 66.1525 110.455 65.9931Z" fill="white"/>
<path d="M105.166 65.5412C104.953 65.0097 105.219 64.7439 106.07 64.611C106.548 64.5579 106.761 64.6642 106.814 65.0363C107 65.9133 105.485 66.3917 105.166 65.5412Z" fill="white"/>
<path d="M98.7872 65.0894C98.548 64.2123 98.6012 64.1326 99.2922 64.1326C99.6643 64.1326 99.9566 64.2389 99.9566 64.3718C99.9566 64.5047 100.036 64.7971 100.116 65.0097C100.196 65.2755 100.036 65.4349 99.5846 65.5147C99.0796 65.621 98.8935 65.5147 98.7872 65.0894Z" fill="white"/>
<path d="M107.664 64.7971C107.664 64.3187 107.85 64.106 108.355 63.9732C109.1 63.7871 109.525 64.1592 109.525 65.0097C109.525 65.3552 109.312 65.4615 108.595 65.4615C107.771 65.4615 107.664 65.3818 107.664 64.7971Z" fill="white"/>
<path d="M97.99 64.7971C97.9102 64.5844 97.9634 64.3984 98.0963 64.3984C98.2558 64.3984 98.3621 64.5844 98.3621 64.7971C98.3621 65.0097 98.3089 65.1957 98.2558 65.1957C98.2026 65.1957 98.0963 65.0097 97.99 64.7971Z" fill="white"/>
<path d="M100.674 65.0097C100.302 64.6642 100.515 63.92 100.993 63.7871C101.286 63.7074 101.578 63.7339 101.658 63.8137C101.977 64.106 101.791 64.8768 101.392 65.0363C100.887 65.2223 100.887 65.2223 100.674 65.0097Z" fill="white"/>
<path d="M110.163 64.8236C109.87 64.0529 110.189 63.4682 110.933 63.3884C111.492 63.3087 111.651 63.415 111.651 63.8403C111.651 64.7173 111.359 65.1957 110.827 65.1957C110.535 65.1957 110.242 65.0363 110.163 64.8236Z" fill="white"/>
<path d="M102.535 64.4781C102.216 64.1858 102.322 63.6542 102.774 63.4947C103.279 63.3087 104.342 63.8402 104.05 64.1326C103.678 64.4515 102.721 64.6907 102.535 64.4781Z" fill="white"/>
<path d="M104.847 63.8137C104.608 63.4416 105.458 62.8037 106.149 62.8037C106.468 62.8037 106.601 62.9632 106.548 63.2555C106.442 63.7871 105.086 64.2123 104.847 63.8137Z" fill="white"/>
<path d="M97.5647 63.6276C97.5647 63.4947 97.485 63.2024 97.4052 62.9632C97.3255 62.724 97.3521 62.5379 97.5115 62.5379C97.8571 62.5379 98.1228 63.5479 97.8039 63.7605C97.671 63.8403 97.5647 63.7871 97.5647 63.6276Z" fill="white"/>
<path d="M98.2822 63.0163C98.1228 62.4316 98.4417 62.0064 99.053 62.0064C99.3985 62.0064 99.744 63.0429 99.5314 63.3884C99.239 63.8403 98.4151 63.5745 98.2822 63.0163Z" fill="white"/>
<path d="M100.143 63.1492C99.7441 62.7506 99.9833 61.7938 100.515 61.6609C100.914 61.5546 101.126 61.6875 101.339 62.1659C101.498 62.5114 101.578 62.8569 101.525 62.91C101.259 63.1492 100.302 63.3353 100.143 63.1492Z" fill="white"/>
<path d="M107.319 63.1492C106.973 62.8037 107.133 62.5911 107.93 62.2987C108.595 62.0861 108.781 62.1127 108.913 62.4316C109.153 63.0695 107.824 63.6808 107.319 63.1492Z" fill="white"/>
<path d="M109.658 62.5379C109.392 62.1127 109.764 61.7406 110.455 61.7406C111.279 61.7406 111.518 62.4316 110.774 62.6442C109.977 62.8569 109.844 62.8303 109.658 62.5379Z" fill="white"/>
<path d="M111.917 61.9001C111.917 61.5014 112.395 61.0762 112.608 61.2888C112.794 61.4748 112.422 62.2722 112.156 62.2722C112.023 62.2722 111.917 62.1127 111.917 61.9001Z" fill="white"/>
<path d="M97.2192 61.5546C97.1129 61.4748 97.0331 61.1293 97.0597 60.837C97.0597 60.332 97.0863 60.332 97.3255 60.9167C97.5913 61.5546 97.5381 61.8735 97.2192 61.5546Z" fill="white"/>
<path d="M97.7242 61.1559C97.485 60.2257 97.5116 60.1459 98.2026 60.1459C98.9734 60.1459 99.4518 61.1293 98.867 61.5014C98.2558 61.8735 97.9102 61.7672 97.7242 61.1559Z" fill="white"/>
<path d="M106.867 61.6874C106.867 61.6077 107 61.1825 107.159 60.7041C107.531 59.6409 108.355 59.5878 108.541 60.6243C108.621 61.023 108.648 61.3685 108.621 61.3951C108.488 61.5546 106.867 61.7938 106.867 61.6874Z" fill="white"/>
<path d="M99.6112 61.023C99.5049 60.9433 99.4252 60.6243 99.4252 60.332C99.4252 59.9067 99.5049 59.8801 99.8238 60.1459C100.036 60.332 100.223 60.6509 100.223 60.837C100.223 61.2356 99.9036 61.3419 99.6112 61.023Z" fill="white"/>
<path d="M109.179 60.4914C109.02 59.6675 109.365 59.2954 110.189 59.4017C110.588 59.4549 110.721 59.6941 110.721 60.2788C110.721 60.9433 110.614 61.1027 110.03 61.1559C109.445 61.2356 109.312 61.1027 109.179 60.4914Z" fill="white"/>
<path d="M111.784 60.5978C111.438 59.5346 111.545 59.2157 112.262 59.136C112.9 59.0562 112.98 59.136 112.98 59.827C112.98 60.4117 112.82 60.6509 112.422 60.7572C112.129 60.837 111.837 60.7572 111.784 60.5978Z" fill="white"/>
<path d="M96.8206 59.0828C96.8206 58.5778 96.8737 58.3652 96.9534 58.631C97.0066 58.8702 97.0066 59.2954 96.9534 59.5612C96.8737 59.8004 96.8206 59.5878 96.8206 59.0828Z" fill="white"/>
<path d="M97.4849 59.4283C97.1394 59.1094 97.2989 58.0729 97.7241 57.9134C98.3354 57.6742 98.6278 57.9665 98.6278 58.8436C98.6278 59.4017 98.4949 59.6144 98.1494 59.6144C97.8836 59.6144 97.5646 59.5346 97.4849 59.4283Z" fill="white"/>
<path d="M99.0796 58.7107C98.9733 58.3121 98.9201 57.8868 99.0265 57.8071C99.2922 57.5413 99.4517 57.9665 99.372 58.7373L99.2922 59.4815L99.0796 58.7107Z" fill="white"/>
<path d="M107.664 58.5247C107.664 58.2323 107.797 58.0728 107.93 58.1526C108.09 58.2323 108.196 58.4981 108.196 58.7107C108.196 58.9233 108.09 59.0828 107.93 59.0828C107.797 59.0828 107.664 58.8436 107.664 58.5247Z" fill="white"/>
<path d="M108.86 58.8702C108.488 58.4715 108.781 57.7539 109.392 57.5945C110.163 57.4084 110.189 57.4084 110.428 58.1792C110.588 58.6576 110.482 58.7639 109.79 58.8702C109.365 58.9499 108.94 58.9234 108.86 58.8702Z" fill="white"/>
<path d="M111.306 58.3652C111.013 58.0994 111.093 57.2224 111.385 57.2224C111.545 57.2224 111.651 57.116 111.651 56.9566C111.651 56.8237 111.492 56.6908 111.279 56.6908C110.827 56.6908 110.455 55.3885 110.827 55.0164C111.306 54.538 111.837 55.043 112.156 56.3453C112.342 57.0363 112.528 57.8336 112.608 58.0994C112.714 58.4449 112.608 58.5513 112.103 58.5513C111.757 58.5513 111.385 58.4715 111.306 58.3652Z" fill="white"/>
<path d="M112.741 56.9566C112.555 56.1592 112.076 54.5646 111.731 53.3951C111.199 51.6942 111.146 51.2689 111.438 51.0829C111.624 50.95 111.864 50.8437 111.943 50.8437C112.236 50.8437 113.299 56.2921 113.193 57.3552L113.113 58.4184L112.741 56.9566Z" fill="white"/>
<path d="M96.5547 56.8237C96.5547 56.3984 96.6078 56.239 96.6876 56.5048C96.7407 56.744 96.7407 57.116 96.6876 57.3021C96.6078 57.4616 96.5547 57.2755 96.5547 56.8237Z" fill="white"/>
<path d="M97.0863 56.7705C97.1926 55.8403 97.9634 55.6277 98.176 56.4782C98.362 57.1692 98.4152 57.0895 97.6178 57.3552C97.0597 57.5147 97.0066 57.4616 97.0863 56.7705Z" fill="white"/>
<path d="M108.302 56.5313C108.09 55.7606 108.541 55.3087 109.392 55.4151C110.03 55.4948 110.269 56.6376 109.737 56.9832C109.073 57.4084 108.462 57.2224 108.302 56.5313Z" fill="white"/>
<path d="M98.6278 56.3187C98.6278 55.8669 98.7607 55.6277 99.0531 55.6277C99.3188 55.6277 99.4251 55.8137 99.372 56.2124C99.2391 57.0629 98.6278 57.1426 98.6278 56.3187Z" fill="white"/>
<path d="M96.2624 55.2024C96.2624 54.9101 96.3421 54.8304 96.4219 55.043C96.5016 55.229 96.475 55.4682 96.3953 55.548C96.3156 55.6543 96.2358 55.4948 96.2624 55.2024Z" fill="white"/>
<path d="M96.7673 55.1227C96.7673 54.724 96.9268 54.5646 97.3255 54.5646C97.6976 54.5646 97.8305 54.6975 97.7773 55.0164C97.6444 55.7074 96.7673 55.7872 96.7673 55.1227Z" fill="white"/>
<path d="M98.2291 54.8835C98.0431 54.4051 98.0431 54.4051 98.8404 54.1925C99.3188 54.033 99.4251 54.1127 99.4251 54.5114C99.4251 55.1493 98.4683 55.4682 98.2291 54.8835Z" fill="white"/>
<path d="M107.85 54.5114C107.664 53.847 108.01 53.5014 108.94 53.5014C109.392 53.5014 109.525 53.6609 109.525 54.1659C109.525 54.5646 109.365 54.8303 109.153 54.8303C108.94 54.8303 108.594 54.9101 108.382 54.9898C108.143 55.0695 107.957 54.9101 107.85 54.5114Z" fill="white"/>
<path d="M110.163 53.9001C109.95 53.3686 110.269 52.9699 110.88 52.9699C111.252 52.9699 111.385 53.1559 111.385 53.6343C111.385 54.1127 111.252 54.2988 110.854 54.2988C110.561 54.2988 110.242 54.1127 110.163 53.9001Z" fill="white"/>
<path d="M96.5016 53.528C96.5016 52.9699 97.1129 52.332 97.3787 52.6244C97.485 52.7041 97.5647 53.0762 97.5647 53.4217C97.5647 53.847 97.4052 54.033 97.0331 54.033C96.6876 54.033 96.5016 53.847 96.5016 53.528Z" fill="white"/>
<path d="M97.9634 53.2091C97.7507 52.5447 97.9899 52.2523 98.8936 52.1194C99.7175 52.0131 99.9833 52.8902 99.2657 53.4217C98.5746 53.9267 98.1494 53.847 97.9634 53.2091Z" fill="white"/>
<path d="M107.585 53.0496C107.398 52.8902 107.319 51.9068 107.478 51.9068C107.505 51.9068 107.903 51.8005 108.382 51.6676C109.179 51.4284 109.232 51.455 109.206 52.1726C109.179 52.7041 109.02 52.9699 108.621 53.0762C107.903 53.2622 107.797 53.2622 107.585 53.0496Z" fill="white"/>
<path d="M106.601 52.4383C106.601 52.2523 106.681 52.1726 106.787 52.2523C106.867 52.3586 106.867 52.5181 106.787 52.6244C106.681 52.7041 106.601 52.6244 106.601 52.4383Z" fill="white"/>
<path d="M109.578 52.0131C109.658 51.5613 110.482 50.8968 110.668 51.1094C110.747 51.1892 110.88 51.5081 110.96 51.8536C111.146 52.3852 111.066 52.4383 110.322 52.4383C109.684 52.4383 109.498 52.332 109.578 52.0131Z" fill="white"/>
<path d="M96.7673 51.9865C96.7673 51.8536 96.9002 51.5878 97.0331 51.3752C97.2457 51.0563 97.2989 51.0829 97.2989 51.5878C97.2989 51.9068 97.1926 52.1726 97.0331 52.1726C96.9002 52.1726 96.7673 52.0928 96.7673 51.9865Z" fill="white"/>
<path d="M97.5647 51.4018C97.5647 50.6576 98.1228 50.4184 98.5481 50.9765C98.8139 51.3752 98.8139 51.5081 98.5481 51.6942C97.9899 52.0397 97.5647 51.9334 97.5647 51.4018Z" fill="white"/>
<path d="M105.644 51.0563C105.166 50.5247 105.166 50.4981 105.618 50.6576C105.884 50.7639 106.229 50.8437 106.362 50.8437C106.495 50.8437 106.601 51.0297 106.601 51.2423C106.601 51.8005 106.229 51.7473 105.644 51.0563Z" fill="white"/>
<path d="M99.9301 51.0297C98.7873 50.1526 98.6278 48.1859 99.6909 48.1859C100.409 48.1859 101.073 49.3021 100.967 50.3387C100.887 51.2955 100.568 51.5081 99.9301 51.0297Z" fill="white"/>
<path d="M107.212 51.1892C107.319 51.1094 107.478 51.1094 107.585 51.1892C107.664 51.2955 107.585 51.3752 107.398 51.3752C107.212 51.3752 107.133 51.2955 107.212 51.1892Z" fill="white"/>
<path d="M111.226 50.1526C111.305 49.9134 111.385 49.6742 111.385 49.6211C111.385 49.5679 111.518 49.5148 111.651 49.5148C111.81 49.5148 111.917 49.754 111.917 50.0463C111.917 50.3653 111.731 50.5779 111.492 50.5779C111.199 50.5779 111.119 50.445 111.226 50.1526Z" fill="white"/>
<path d="M97.299 50.0729C97.299 49.4616 97.8571 48.4516 98.176 48.4516C98.7342 48.4516 98.3355 50.1526 97.7508 50.2589C97.5116 50.3121 97.299 50.2324 97.299 50.0729Z" fill="white"/>
<path d="M103.279 49.7805L102.482 49.5945L103.199 49.4084C103.943 49.1958 104.475 49.3553 104.475 49.8071C104.475 50.0729 104.448 50.0729 103.279 49.7805Z" fill="white"/>
<path d="M102.349 48.5048C102.349 47.4151 102.96 47.2556 103.518 48.2124C103.89 48.8503 103.917 48.9832 103.571 48.9832C103.359 48.9832 103.013 49.0629 102.774 49.1427C102.455 49.2756 102.349 49.1161 102.349 48.5048Z" fill="white"/>
<path d="M106.973 48.8769C105.777 48.3453 105.006 46.9367 105.006 45.2623C105.006 44.0663 105.113 43.7739 105.83 43.1095C106.282 42.6842 106.734 42.3387 106.867 42.3387C107.452 42.3387 109.604 44.3852 110.322 45.661L111.146 47.1228L110.269 48.053C109.259 49.1161 108.143 49.4085 106.973 48.8769Z" fill="white"/>
<path d="M101.418 48.1859C101.339 48.053 101.392 47.9201 101.525 47.9201C101.684 47.9201 101.817 48.053 101.817 48.1859C101.817 48.3453 101.764 48.4516 101.711 48.4516C101.631 48.4516 101.498 48.3453 101.418 48.1859Z" fill="white"/>
<path d="M97.9368 47.7606C98.0166 47.5214 98.0963 47.2822 98.0963 47.2291C98.0963 47.1759 98.3355 47.1228 98.6279 47.1228C99.2923 47.1228 99.3189 47.548 98.6544 47.9201C97.9368 48.2922 97.7508 48.2656 97.9368 47.7606Z" fill="white"/>
<path d="M100.036 47.4417C99.4252 47.362 99.2391 47.0164 99.6378 46.7772C99.7441 46.6975 100.223 46.5646 100.701 46.4583C101.419 46.2988 101.551 46.352 101.551 46.8038C101.551 47.362 100.993 47.6012 100.036 47.4417Z" fill="white"/>
<path d="M102.083 46.538C102.083 46.2191 102.109 46.0331 102.163 46.0862C102.189 46.1394 102.402 46.4052 102.588 46.6709C102.907 47.043 102.88 47.1228 102.508 47.1228C102.242 47.1228 102.083 46.9101 102.083 46.538Z" fill="white"/>
<path d="M98.3621 46.352C98.3621 46.1925 98.495 46.0065 98.6278 45.9267C98.7873 45.847 98.8936 45.9533 98.8936 46.1659C98.8936 46.4051 98.7873 46.5912 98.6278 46.5912C98.495 46.5912 98.3621 46.4849 98.3621 46.352Z" fill="white"/>
<path d="M99.3454 45.9533C99.1328 45.4218 101.02 44.8371 101.339 45.342C101.578 45.7673 101.339 45.9533 100.329 46.1659C99.7175 46.2988 99.4517 46.2457 99.3454 45.9533Z" fill="white"/>
<path d="M101.844 45.1028C101.844 44.8105 101.923 44.7307 102.003 44.9434C102.083 45.1294 102.056 45.3686 101.977 45.4483C101.897 45.5547 101.817 45.3952 101.844 45.1028Z" fill="white"/>
<path d="M99.5847 44.6776C99.9036 44.0929 100.834 43.1361 101.073 43.1361C101.339 43.1361 101.365 44.3852 101.1 44.5447C100.967 44.5979 100.541 44.7308 100.143 44.8371C99.5581 44.97 99.4252 44.9434 99.5847 44.6776Z" fill="white"/>
<path d="M101.711 44.0663C101.419 43.269 101.551 42.9234 102.189 42.8171C102.854 42.6842 102.854 42.6842 102.428 43.5082C101.897 44.5713 101.924 44.5713 101.711 44.0663Z" fill="white"/>
<path d="M101.551 42.4716C101.551 42.4185 102.083 42.0464 102.747 41.6743C103.545 41.1959 104.103 41.0364 104.502 41.1427C104.98 41.3022 104.847 41.4085 103.678 41.9666C102.375 42.5514 101.551 42.764 101.551 42.4716Z" fill="white"/>
<path d="M116.302 18.9236C115.585 17.8871 114.07 16.2127 112.98 15.2027C111.89 14.1927 111.173 13.3688 111.385 13.3688C111.97 13.3688 116.435 14.5914 117.551 15.0698C118.482 15.4685 118.508 15.5216 118.269 16.3455C118.136 16.8239 118.03 18.02 118.03 19.0033C118.03 20.0133 117.95 20.8106 117.844 20.8106C117.711 20.8106 117.046 19.9601 116.302 18.9236Z" fill="white"/>
<path d="M62.216 99.4281C61.1263 98.8699 60.8871 98.551 59.5051 95.8135C57.5117 91.9331 57.4586 91.0295 59.3456 93.2354C60.0898 94.1125 61.8174 95.9198 63.1728 97.2487C65.4851 99.4812 65.5914 99.6407 64.8207 99.5344C64.2625 99.4546 64.0499 99.5078 64.1828 99.7204C64.5017 100.199 63.4918 100.066 62.216 99.4281Z" fill="white"/>
<path fill-rule="evenodd" clip-rule="evenodd" d="M106.758 147.851C106.537 147.327 106.783 146.723 107.307 146.503L107.879 146.26C113.447 143.878 116.642 142.447 118.814 140.175C120.985 137.902 121.245 134.565 121.653 132.534C121.765 131.977 123.026 132.956 123.584 133.068C124.141 133.18 124.502 133.722 124.39 134.279C123.9 136.721 122.579 139.049 120.453 141.258C118.333 143.461 114.231 145.821 108.106 148.4C107.582 148.621 106.978 148.375 106.758 147.851Z" fill="#00160A"/>
<path fill-rule="evenodd" clip-rule="evenodd" d="M131.934 41.8048C132.422 41.5141 133.054 41.6743 133.345 42.1628C136.256 47.0535 137.816 52.6443 137.816 58.461C137.816 76.083 123.53 90.3684 105.908 90.3684C101.226 90.3684 96.6839 89.3584 92.525 87.4342C92.0091 87.1955 90.0602 85.2949 92.0231 86.0679C93.9859 86.8409 101.58 88.5759 105.963 88.5759C122.448 88.5759 134.11 74.9461 134.11 58.461C134.11 53.0175 131.934 48.1859 131.576 43.2157C131.534 42.6396 131.445 42.0956 131.934 41.8048Z" fill="#00160A"/>
<path fill-rule="evenodd" clip-rule="evenodd" d="M29.9969 119.705C30.3607 119.268 31.0097 118.386 31.4465 118.749C33.2383 120.242 35.1504 121.971 37.1957 122.305C39.3241 122.652 41.8491 122.652 44.7674 122.299C45.3317 122.231 45.8446 122.633 45.9129 123.197C45.9812 123.761 45.5791 124.274 45.0148 124.342C41.9157 124.718 39.1999 124.718 36.8642 124.336C34.4454 123.942 32.196 122.876 30.129 121.155C29.6922 120.791 29.633 120.142 29.9969 119.705Z" fill="#00160A"/>
<path d="M51.8506 83.6939C50.5217 82.6308 47.6779 79.4946 45.5251 76.7305C44.4088 75.2687 43.1597 72.292 42.4155 69.2887C42.07 67.9332 41.7245 66.7107 41.6447 66.5512C41.5384 66.4183 41.1132 64.5313 40.6879 62.3519C40.05 59.2689 40.185 58.2756 39.6248 54.5879C39.3876 53.0265 39.173 51.7841 39.173 51.7841L39.864 50.8968C40.2627 50.3653 40.767 49.4856 40.9537 48.9832C41.8042 46.6948 48.05 39.5215 48.236 39.7075C48.2892 39.7607 48.0766 41.0098 47.7045 42.4716C47.359 43.9334 46.9337 46.1394 46.7477 47.3885C46.4819 49.4616 46.3756 49.7008 45.5517 50.3918C44.5151 51.2689 42.5484 54.0862 42.5484 54.6709C42.5484 55.4682 43.7444 54.9367 44.9935 53.6343L46.2693 52.3054V53.7672C46.2693 54.724 46.0832 55.6011 45.7377 56.2921C45.0733 57.5944 45.0733 58.9765 45.7111 60.0396C46.0301 60.5712 46.3224 61.8469 46.5085 63.3619C47.3324 70.2189 49.0865 76.1724 52.0898 82.1524C52.834 83.6408 53.4187 84.8634 53.3921 84.8634C53.339 84.8634 52.648 84.3318 51.8506 83.6939Z" fill="white"/>
<path fill-rule="evenodd" clip-rule="evenodd" d="M162.441 100.093L164.355 100.943C164.752 101.126 169.129 103.229 174.387 105.756C182.864 109.829 193.631 115.003 193.697 115.003C193.803 115.003 194.302 113.849 194.414 112.504C194.68 109.607 195.664 105.674 196.807 102.936C197.338 101.714 197.763 100.186 197.763 100.053C197.763 99.9922 197.331 99.8179 196.624 99.5326C195.782 99.193 194.55 98.696 193.192 98.046C186.494 94.8301 173.391 88.2653 171.77 87.282C170.175 86.3517 169.857 86.272 169.857 86.8833C169.857 87.6806 168.235 91.375 166.986 93.3683C166.322 94.458 165.019 96.4248 164.089 97.7271L162.441 100.093ZM193.245 110.219C194.007 110.66 192.687 111.308 192.368 111.415C190.49 111.574 188.279 111.221 186.468 110.166C185.521 109.494 178.063 105.351 173.116 102.602C170.854 101.346 169.117 100.381 168.767 100.172C167.651 99.5078 166.587 98.7902 166.401 98.5776C165.843 97.86 166.375 97.541 167.943 97.6739C168.886 97.7538 191.599 109.265 193.245 110.219Z" fill="white"/>
<path d="M143.358 102.485C142.667 102.245 141.923 101.714 141.445 101.102L140.647 100.119L143.465 97.3284C147.797 93.0759 150.986 88.4285 153.857 83.2458C154.813 81.5183 157.657 74.5511 158.003 73.7804C158.534 72.6641 158.933 72.2389 160.076 71.601C161.431 70.8037 162.973 70.5379 163.637 70.9897C164.913 71.8402 164.913 74.5246 163.637 79.1491C162.229 84.2255 160.342 87.8667 156.435 93.1025C155.823 93.8999 154.681 95.468 153.857 96.5576C151.651 99.4812 150.216 100.89 148.275 101.98C146.362 103.043 145.245 103.176 143.358 102.485Z" fill="white"/>
<path d="M153.378 101.873L152.82 101.315C152.82 101.315 162.084 89.5456 163.744 85.2089C165.01 81.8994 165.756 80.9609 166.762 80.9609C167.324 80.9609 167.783 81.0893 167.996 81.4083C168.368 81.9664 168.727 82.6574 168.248 85.0228C167.451 88.8501 166.228 91.375 162.561 96.8234C161.71 98.0726 160.62 99.4546 160.142 99.9331C159.026 100.97 156.514 102.033 155.053 102.272C154.122 102.405 153.857 102.352 153.378 101.873Z" fill="white"/>
<path fill-rule="evenodd" clip-rule="evenodd" d="M168.939 89.5662C169.475 88.3399 169.857 87.2703 169.857 86.8833C169.857 86.272 170.175 86.3517 171.77 87.282C173.391 88.2653 186.494 94.8301 193.192 98.046C195.69 99.242 197.763 99.92 197.763 100.053C197.763 100.186 168.37 90.8663 168.939 89.5662Z" fill="#E7EAEE"/>
<path fill-rule="evenodd" clip-rule="evenodd" d="M78.0034 91.0826C74.628 88.8766 69.525 83.6939 67.0533 79.9996C63.5184 74.684 61.1795 68.9964 60.0367 62.8834C59.2128 58.4449 59.2394 51.6144 60.0633 47.6543C60.9138 43.6145 62.0035 40.5314 63.9436 36.6245C66.2028 32.1062 68.5948 28.784 72.1828 25.196C75.7013 21.6774 60.0633 36.228 63.9436 62.2622C67.0533 84.0787 80.4173 92.6731 78.0034 91.0826Z" fill="#E7EAEE"/>
</svg>
