<svg width="234" height="250" viewBox="0 0 234 250" fill="none" xmlns="http://www.w3.org/2000/svg">
<path fill-rule="evenodd" clip-rule="evenodd" d="M181.962 155.287C177.988 156.846 173.39 159.186 172.963 163.445C178.363 159.279 185.032 156.792 191.834 156.41C187.135 162.348 181.202 167.299 174.525 170.852C168.529 174.043 160.938 177.447 160.423 184.235C166.863 176.544 176.764 171.888 186.777 171.842C180.371 181.253 170.099 187.927 158.917 189.945C159.301 192.837 171.698 199.031 175.309 200.223C177.881 211.303 178.995 225.674 181.567 236.754C182.199 239.481 182.757 242.614 181.092 244.862C179.44 247.091 176.321 247.475 173.559 247.672C162.673 248.448 147.777 249.224 136.891 250C135.588 244.077 134.284 238.155 132.981 232.232C114.618 233.942 35.8934 252.036 21.4464 242.544C-34.3238 205.901 36.7929 193.419 38.3213 148.807C38.6717 138.578 8.00725 120.697 8.49411 110.244C8.81202 103.419 9.86547 96.7518 13.2324 90.8913C16.5993 85.0307 21.9344 80.5162 27.7331 77.0629C19.7497 75.0048 13.7027 67.0231 13.8645 58.7574C14.0263 50.4917 20.381 42.7542 28.4387 41.0119C24.6397 36.4713 18.6576 34.3901 14.288 30.3989C9.19782 25.7494 6.63995 18.2493 8.49411 11.5993C10.3483 4.9492 16.8766 -0.282946 23.7551 0.0118739C29.4051 0.254042 34.3773 3.83819 38.3213 7.90326C44.4378 14.2077 48.9868 22.0306 51.4462 30.4743C53.0855 36.1023 59.0933 38.9655 64.1669 41.878C69.2406 44.7906 74.5095 49.864 73.08 55.5492C71.1902 47.7696 99.2788 57.0361 124.753 59.3045C128.135 59.6056 131.775 60.0441 134.276 62.3484C137.869 65.6599 143.263 66.8677 147.919 65.4032C149.4 69.0863 150.49 73.2234 149.231 76.9887C147.972 80.754 143.511 83.628 139.946 81.9007C140.876 86.7031 141.807 91.5056 142.738 96.308C151.854 96.4179 160.97 96.6046 170.083 96.868C174.913 97.0076 179.961 97.2281 184.159 99.6281C188.357 102.028 193.976 98.6281 198.124 89.8923C195.439 104.147 198.62 109.842 204.105 111.391C204.116 111.283 204.543 111.334 204.555 111.227C206.188 97.1406 215.718 84.6334 228.981 79.6857C227.809 82.3964 219.417 87.7506 213.589 94.5877C207.897 101.266 205.173 110.208 204.891 111.813C213.929 109.436 216.942 116.19 232.276 110.244C225.269 118.693 211.766 120.774 202.554 114.824C198.208 119.685 198.451 125.068 195.372 130.821C200.602 124.302 207.547 130.082 202.037 134.307C204.962 134.589 208.123 134.976 210.244 137.014C212.365 139.052 212.418 143.343 209.682 144.416C200.442 148.04 191.202 151.663 181.962 155.287Z" fill="#382BF0"/>
<path fill-rule="evenodd" clip-rule="evenodd" d="M166.964 123.161C167.299 122.524 167.662 121.855 168.277 121.483C168.893 121.111 169.837 121.188 170.169 121.828C170.521 122.508 169.997 123.328 169.38 123.782C168.764 124.237 168.007 124.557 167.606 125.21C169.77 126.64 171.934 128.07 174.097 129.5C175.792 130.62 177.709 132.219 177.362 134.225C177.159 135.401 176.165 136.315 175.059 136.753C173.952 137.192 172.735 137.238 171.546 137.272C163.552 137.503 155.551 137.462 147.56 137.15C147.006 137.129 146.387 137.077 146.018 136.662C145.732 136.34 145.673 135.881 145.626 135.452C145.167 131.187 144.707 126.921 144.247 122.655C144.23 122.497 144.213 122.333 144.27 122.185C144.506 121.562 145.435 121.946 145.955 122.361C149.633 125.306 155.514 124.96 158.824 121.604C159.624 120.793 160.985 120.898 162.013 121.387C163.04 121.876 163.9 122.671 164.931 123.153C164.821 122.556 165.346 121.925 165.952 121.927C166.558 121.93 167.079 122.565 166.964 123.161Z" fill="white"/>
<path fill-rule="evenodd" clip-rule="evenodd" d="M38.2389 76.08C38.2389 76.08 37.3459 65.3527 39.5935 61.9043C41.8411 58.4559 50.4025 57.4177 50.4025 57.4177C50.4025 57.4177 73.8677 57.1101 86.546 57.5962C99.2242 58.0823 124.58 60.2616 124.58 60.2616C124.58 60.2616 127.875 60.9824 129.356 61.9043C130.837 62.8263 132.903 65.4424 132.903 65.4424C132.903 65.4424 137.398 66.0997 139.635 66.1891C141.871 66.2785 143.92 65.8827 143.92 65.8827C143.92 65.8827 146.77 74.2192 144.755 78.1926C142.74 82.166 135.975 81.5499 135.975 81.5499L138.37 96.4203C138.37 96.4203 135.523 97.7699 133.967 99.4619C132.411 101.154 131.786 103.58 131.786 103.58L136.411 148.807C136.411 148.807 137.771 151.158 140.693 152.051C143.616 152.943 150.199 153.019 150.199 153.019C150.199 153.019 149.965 157.58 150.199 159.542C150.434 161.505 150.644 162.58 150.644 162.58L155.6 198.171C155.6 198.171 150.783 199.05 146.015 200.21C141.248 201.37 131.786 203.966 131.786 203.966C131.786 203.966 128.451 205.491 128.019 207.954C127.587 210.416 129.356 217.817 129.356 217.817L76.2392 221.877C76.2392 221.877 71.0703 221.975 69.2923 220.851C67.5144 219.728 67.0272 216.056 67.0272 216.056L59.8426 151.246C59.8426 151.246 48.3618 151.527 45.0087 149.607C41.6556 147.687 41.25 140.599 41.25 140.599C41.25 140.599 41.8071 136.581 41.25 133.792C41.0642 132.862 38.636 122.777 37.8202 113.18C37.3586 107.75 43.7294 103.58 43.7294 103.58L38.2389 76.08Z" fill="white"/>
<path fill-rule="evenodd" clip-rule="evenodd" d="M75.7187 61.1601C75.3055 61.744 75.6513 62.6153 76.2482 63.0081C76.8451 63.4009 77.5971 63.4452 78.3103 63.4774C86.0592 63.8271 93.808 64.1769 101.557 64.5266C102.312 64.5607 103.148 64.5682 103.72 64.0728C104.292 63.5774 104.217 62.3959 103.47 62.2769C94.8536 60.9028 86.1098 60.3322 77.3884 60.5747C76.776 60.5918 76.0732 60.6591 75.7187 61.1601" fill="#E7EAEE"/>
<path fill-rule="evenodd" clip-rule="evenodd" d="M110.194 116.864L108.181 107.387C108.181 107.387 108.087 109.341 107.02 110.136C105.954 110.931 103.847 110.618 103.847 110.618C103.847 110.618 103.513 104 104.996 101.985C106.48 99.9693 107.942 101.873 110.76 101.228C113.576 100.584 112.993 98.4623 116.265 99.4071C119.537 100.352 121.954 107.375 121.954 107.375C121.954 107.375 119.389 108.238 118.297 108.016C117.206 107.795 117.472 106.467 117.472 106.467C117.472 106.467 116.698 106.137 116.895 108.465C116.991 109.597 117.845 111.298 118.297 113.523C118.466 114.352 118.297 116.214 118.297 116.214C118.297 116.214 115.386 116.512 112.87 117.052C110.354 117.592 110.194 116.864 110.194 116.864Z" fill="#E7EAEE"/>
<path fill-rule="evenodd" clip-rule="evenodd" d="M38.7044 93.2891C37.7352 92.7658 36.9471 91.9675 36.1747 91.1811C34.1821 89.1525 32.1647 87.0911 30.7821 84.6039C30.6505 84.3671 30.5211 84.0952 30.597 83.835C30.6729 83.5748 31.069 83.427 31.2172 83.6538C33.6203 87.3333 36.655 90.5968 40.1476 93.2572C39.8335 93.6808 39.1677 93.5393 38.7044 93.2891Z" fill="#00160A"/>
<path fill-rule="evenodd" clip-rule="evenodd" d="M41.6073 46.7182C42.1799 46.1267 42.4852 45.3307 42.7488 44.5499C43.5709 42.1149 44.1311 39.591 44.4165 37.0362C44.4679 36.576 44.5522 36.0461 44.9503 35.8116C45.398 38.0022 44.8435 40.2598 44.2921 42.4264C43.8073 44.3313 43.2706 46.3314 41.8958 47.7326C41.7567 47.8744 41.5791 48.0189 41.3835 47.9861C41.1198 47.9418 41.0141 47.5903 41.1082 47.3394C41.2024 47.0884 41.4211 46.9106 41.6073 46.7182L41.6073 46.7182Z" fill="#00160A"/>
<path fill-rule="evenodd" clip-rule="evenodd" d="M179.795 65.8251C180.067 65.7521 180.345 65.9676 180.464 66.2241C180.582 66.4806 180.591 66.7723 180.644 67.0501C180.851 68.1359 181.827 69.0268 182.924 69.1314C183.061 69.4503 182.758 69.7696 182.519 70.0205C181.975 70.5917 181.631 71.3517 181.561 72.1388C181.516 72.6495 181.408 73.3603 180.897 73.3536C180.487 73.3482 180.306 72.8499 180.158 72.4654C179.797 71.5264 178.981 70.7754 178.018 70.494C177.815 70.4349 177.73 70.1756 177.786 69.9718C177.842 69.768 177.996 69.6086 178.143 69.4573C178.776 68.8058 179.419 68.0346 179.412 67.1249C179.408 66.6329 179.321 65.9521 179.795 65.8251Z" fill="#BA9FFB"/>
<path fill-rule="evenodd" clip-rule="evenodd" d="M198.984 151.28C198.134 152.156 197.833 153.527 198.238 154.68C197.79 154.881 197.455 154.262 197.233 153.823C196.901 153.164 196.272 152.662 195.557 152.486C196.592 151.831 197.237 150.597 197.185 149.37C197.602 149.098 198.068 149.665 198.188 150.149C198.307 150.633 198.487 151.263 198.984 151.28Z" fill="#E7EAEE"/>
<path fill-rule="evenodd" clip-rule="evenodd" d="M191.729 152.923C192.222 153.707 192.924 154.359 193.741 154.793C194.034 154.948 193.768 155.382 193.526 155.609C192.915 156.182 192.528 156.99 192.463 157.826C191.929 157.289 191.395 156.752 190.86 156.214C190.647 156 190.422 155.667 190.606 155.427C191.166 154.694 191.554 153.829 191.729 152.923Z" fill="#E7EAEE"/>
<path fill-rule="evenodd" clip-rule="evenodd" d="M156.036 58.4584C156.522 55.3523 157.697 52.2998 159.763 49.9343C161.828 47.5688 164.842 45.9541 167.977 45.9566C171.112 45.9592 174.278 47.7398 175.58 50.5996C176.255 52.0793 176.42 53.745 176.374 55.3712C176.287 58.4639 175.459 61.5332 173.979 64.2478C172.644 66.6956 170.725 68.8976 168.234 70.1394C165.743 71.3812 162.639 71.548 160.217 70.1751C158.3 69.0881 156.958 67.137 156.319 65.023C155.68 62.9091 155.694 60.6406 156.036 58.4584M175.196 56.1079C175.252 54.1821 174.935 52.1935 173.926 50.5544C173.312 49.5579 172.452 48.7152 171.445 48.1226C168.196 46.2117 163.774 47.2383 161.076 49.8734C158.377 52.5086 157.207 56.4033 157.087 60.1787C157.023 62.1926 157.239 64.2576 158.092 66.0816C158.946 67.9055 160.508 69.4655 162.454 69.9667C165 70.6224 167.687 69.3878 169.683 67.6727C173.014 64.811 175.066 60.505 175.196 56.1079Z" fill="#BA9FFB"/>
<path fill-rule="evenodd" clip-rule="evenodd" d="M188.114 56.3016C187.596 56.9813 187.054 57.8742 187.452 58.6312C187.594 58.902 187.226 59.2173 186.933 59.1318C186.64 59.0463 186.473 58.7357 186.395 58.4398C186.317 58.1438 186.291 57.8263 186.135 57.5635C185.978 57.3007 185.623 57.118 185.364 57.28C184.995 57.2362 184.957 56.679 185.171 56.375C185.386 56.0709 185.738 55.8619 185.869 55.5137C185.974 55.2381 185.918 54.9288 185.967 54.6382C186.017 54.3476 186.263 54.0373 186.548 54.1115C186.538 54.6223 186.597 55.1523 186.855 55.5926C187.114 56.0329 187.609 56.3623 188.114 56.3016Z" fill="#BA9FFB"/>
<path fill-rule="evenodd" clip-rule="evenodd" d="M141.744 55.2953C142.149 54.8226 142.658 54.4181 143.255 54.246C143.853 54.0739 144.546 54.1646 145.012 54.5766C145.52 55.0248 145.679 55.7737 145.571 56.4433C145.463 57.1128 145.126 57.7212 144.772 58.299C144.312 59.0487 143.813 59.774 143.277 60.471C143.11 60.6886 142.926 60.9131 142.67 61.0101C142.331 61.1382 141.953 61.0135 141.619 60.8735C140.446 60.3815 139.355 59.6913 138.407 58.8406C137.539 58.0617 136.738 56.9202 137.09 55.8064C137.314 55.0969 137.998 54.5836 138.732 54.4741C139.466 54.3645 140.227 54.6239 140.811 55.0835C141.09 55.3035 141.512 55.5653 141.744 55.2953M138.036 55.7075C137.482 56.4723 138.083 57.5436 138.782 58.1786C139.653 58.971 140.688 59.5563 141.713 60.1348C141.845 60.2092 141.992 60.2861 142.139 60.2542C142.271 60.2257 142.369 60.1175 142.456 60.0142C143.15 59.189 143.772 58.3026 144.312 57.3685C144.727 56.65 145.032 55.5943 144.363 55.1052C143.834 54.7182 143.062 55.03 142.613 55.5086C142.164 55.9872 141.881 56.6121 141.39 57.0476C141.007 56.442 140.6 55.8127 139.979 55.4572C139.357 55.1018 138.456 55.1272 138.036 55.7075H138.036Z" fill="#BA9FFB"/>
<path fill-rule="evenodd" clip-rule="evenodd" d="M133.805 34.3944C135.076 33.4007 136.488 32.5902 137.987 31.9952C138.905 31.6304 139.953 31.3496 140.861 31.7403C142.315 32.3662 142.599 34.461 141.833 35.8505C141.068 37.24 139.617 38.0823 138.235 38.8564C135.525 40.3744 132.815 41.8924 130.106 43.4105C130.639 42.3423 130.037 41.0884 129.544 40.0007C128.434 37.5511 127.852 34.8618 127.852 32.1709C127.852 31.3209 127.915 30.4452 128.287 29.6813C128.659 28.9174 129.401 28.2839 130.248 28.2639C131.604 28.2319 132.505 29.6481 132.963 30.9286C133.363 32.0501 133.646 33.2138 133.805 34.3944ZM139.548 32.4469C137.356 32.8934 135.314 34.0498 133.801 35.7013C133.652 35.864 133.363 35.7923 133.226 35.6186C133.09 35.4449 133.064 35.212 133.038 34.9926C132.868 33.5399 132.489 32.1119 131.917 30.766C131.599 30.0158 131.065 29.1872 130.252 29.174C129.649 29.1642 129.125 29.6482 128.903 30.21C128.681 30.7718 128.7 31.3972 128.742 32.0001C128.98 35.3626 129.862 38.678 131.326 41.7123C133.723 40.365 136.12 39.0177 138.517 37.6704C139.265 37.25 140.027 36.8192 140.608 36.1874C141.19 35.5555 141.572 34.6775 141.403 33.8345C141.234 32.9915 140.388 32.2756 139.548 32.4469Z" fill="#BA9FFB"/>
<path fill-rule="evenodd" clip-rule="evenodd" d="M117.032 200.938C124.028 200.138 131.07 199.736 138.112 199.733C139.403 199.732 140.527 198.726 141.052 197.542C141.577 196.358 141.619 195.023 141.62 193.727C141.622 188.914 141.171 184.113 140.72 179.32C140.537 177.377 140.354 175.433 140.171 173.49C140.06 172.311 139.943 171.105 139.448 170.03C138.588 168.163 136.686 166.95 134.704 166.427C132.722 165.904 130.638 165.976 128.59 166.051C121.79 166.301 114.99 166.551 108.19 166.8C112.11 165.359 116.379 165.291 120.554 165.24C123.755 165.201 126.955 165.161 130.156 165.122C133.428 165.082 137.166 165.247 139.253 167.774C140.601 169.407 140.899 171.642 141.124 173.75C141.833 180.387 142.353 187.044 142.682 193.711C142.791 195.92 142.703 198.516 140.91 199.804C139.907 200.524 138.605 200.632 137.375 200.715C129.881 201.224 122.387 201.733 114.893 202.243C113.133 202.362 111.279 202.464 109.696 201.684C109.146 201.413 108.581 200.8 108.877 200.262C111.313 201.593 114.276 201.253 117.032 200.938Z" fill="#00160A"/>
<path fill-rule="evenodd" clip-rule="evenodd" d="M87.3942 94.4753C87.5345 94.6857 87.5665 94.948 87.5947 95.1996C87.6602 95.7853 87.7258 96.3711 87.7914 96.9568C87.8692 97.6518 87.8853 98.4925 87.3109 98.8889C87.0046 99.1003 86.6097 99.1176 86.2381 99.1277C78.4209 99.3395 70.6038 99.5513 62.7866 99.7632C62.2837 99.7768 61.7016 99.755 61.3933 99.3563C61.1999 99.106 61.1701 98.7694 61.152 98.4532C61.095 97.46 61.0791 96.4645 61.1044 95.47C61.1083 95.3186 61.1171 95.1557 61.2107 95.0369C61.3231 94.8945 61.5209 94.8596 61.7003 94.8352C69.7775 93.7379 77.9634 93.4481 86.0976 93.9716C86.5778 94.0026 87.1266 94.0742 87.3942 94.4753M87.073 98.2858C86.2791 97.8557 87.079 96.5948 86.7903 95.7374C86.5423 95.0008 85.5998 94.8265 84.8259 94.7823C77.4551 94.3614 70.0456 94.6239 62.7228 95.5655C62.4531 95.6002 62.154 95.6523 61.9902 95.87C61.8284 96.0851 61.8576 96.3837 61.8945 96.6507C61.9515 97.0638 62.0085 97.4769 62.0655 97.89C62.1104 98.2156 62.179 98.5807 62.4517 98.763C62.6494 98.8952 62.904 98.8939 63.1416 98.8879C71.1187 98.6872 79.0959 98.4865 87.073 98.2858Z" fill="#00160A"/>
<path fill-rule="evenodd" clip-rule="evenodd" d="M102.1 108.356C102.137 107.486 102.174 106.615 102.211 105.745C102.284 104.048 102.373 102.288 103.159 100.784C103.945 99.2798 105.643 98.1109 107.291 98.5017C108.321 98.7462 109.272 99.5589 110.309 99.3407C111.211 99.1508 111.765 98.2557 112.528 97.7352C114.346 96.4946 116.88 97.647 118.383 99.2564C120.004 100.991 121.057 103.25 121.345 105.609C121.37 105.809 121.382 106.034 121.253 106.189C121.147 106.318 120.973 106.362 120.81 106.4C120.185 106.543 119.559 106.687 118.933 106.831C118.4 106.953 117.847 107.076 117.312 106.965C116.776 106.854 116.262 106.44 116.219 105.893C116.059 108.948 118.34 111.866 117.704 114.858C117.468 114.729 117.232 114.599 116.996 114.47C117.553 111.469 114.887 108.565 115.444 105.564C115.517 105.167 115.676 104.744 116.03 104.552C116.384 104.359 116.944 104.578 116.93 104.982C116.908 105.628 117.604 106.112 118.249 106.106C118.894 106.101 119.481 105.754 120.032 105.417C120.228 105.297 120.175 105.001 120.093 104.786C119.483 103.181 118.681 101.65 117.71 100.235C117.053 99.2787 116.262 98.3334 115.172 97.9451C114.081 97.5569 112.64 97.953 112.239 99.0419C111.769 100.316 109.993 100.402 108.688 100.035C107.384 99.6673 105.92 99.0935 104.756 99.7893C103.783 100.371 103.458 101.611 103.275 102.732C102.962 104.656 102.818 106.607 102.844 108.557C102.897 108.854 103.275 108.95 103.576 108.942C105.163 108.901 106.636 107.646 106.933 106.082C107.361 106.575 107.513 107.243 107.652 107.882C108.131 110.094 108.609 112.305 109.088 114.517C109.236 115.198 109.064 116.244 108.38 116.12C108.07 113.708 107.612 111.315 107.007 108.96C105.865 109.221 104.722 109.481 103.579 109.742C103.229 109.822 102.836 109.896 102.53 109.708C102.106 109.448 102.078 108.853 102.1 108.356Z" fill="#00160A"/>
<path fill-rule="evenodd" clip-rule="evenodd" d="M135.528 168.422C136.111 169.056 135.205 170.226 135.739 170.901C136.016 171.252 135.818 171.808 135.451 172.062C135.084 172.316 134.614 172.351 134.168 172.376C126.513 172.823 118.858 173.269 111.202 173.715C110.682 173.745 110.06 173.727 109.776 173.289C109.652 173.098 109.622 172.862 109.595 172.636C109.525 172.046 109.455 171.456 109.385 170.866C109.363 170.68 109.344 170.482 109.43 170.317C109.574 170.045 109.929 169.986 110.235 169.959C118.28 169.247 126.335 168.645 134.397 168.153C134.797 168.129 135.255 168.126 135.528 168.422ZM134.649 169.419C134.624 169.273 134.591 169.114 134.475 169.023C134.359 168.932 134.198 168.939 134.051 168.949C126.913 169.471 119.775 169.993 112.637 170.515C112.06 170.557 111.461 170.606 110.957 170.891C110.454 171.176 110.074 171.77 110.225 172.33C110.272 172.503 110.372 172.668 110.525 172.761C110.713 172.875 110.947 172.867 111.167 172.855C118.703 172.445 126.239 172.035 133.776 171.625C134.672 171.576 134.8 170.306 134.649 169.419Z" fill="#00160A"/>
<path fill-rule="evenodd" clip-rule="evenodd" d="M141.567 161.547C142.922 165.123 143.355 168.973 143.775 172.775C144.753 181.609 145.731 190.442 146.709 199.276C145.982 199.336 145.646 198.399 145.556 197.672C144.074 185.787 143.597 173.748 141.092 162.036C141.25 161.873 141.409 161.71 141.567 161.547Z" fill="#00160A"/>
<path fill-rule="evenodd" clip-rule="evenodd" d="M97.8594 100.014C97.6487 99.9236 97.6528 99.5937 97.8145 99.4308C97.9762 99.2678 98.221 99.2285 98.4484 99.1995C100.151 98.9826 101.867 98.877 103.583 98.8833C103.492 99.6176 102.546 99.8323 101.809 99.8664C100.571 99.9238 99.3329 99.9812 98.0947 100.039C98.0153 100.042 97.9326 100.045 97.8594 100.014L97.8594 100.014Z" fill="#00160A"/>
<path fill-rule="evenodd" clip-rule="evenodd" d="M107.463 189.847C107.322 187.218 107.18 184.588 107.039 181.959C106.658 174.883 106.266 167.733 104.302 160.926C104.051 160.057 103.764 159.174 103.209 158.461C101.818 156.677 99.2439 156.472 96.9855 156.472C88.2782 156.472 79.5711 157.303 71.0198 158.948C70.1508 159.116 69.2474 159.307 68.5541 159.859C67.4524 160.735 67.1619 162.275 67.0596 163.681C66.8728 166.249 67.0578 168.843 67.6069 171.358C67.2926 171.305 66.9783 171.253 66.6641 171.2C65.5118 168.793 64.9869 166.087 65.1552 163.423C65.2283 162.266 65.4405 161.087 66.0349 160.093C67.5135 157.62 70.7682 157.026 73.6272 156.719C80.8808 155.94 88.1616 155.415 95.4518 155.146C98.3863 155.038 101.702 155.12 103.716 157.263C104.729 158.342 105.242 159.79 105.645 161.216C107.044 166.167 107.43 171.341 107.809 176.473C108.179 181.487 108.549 186.502 108.919 191.516C109.006 192.695 109.092 193.892 108.855 195.05C108.08 198.821 104.075 201.116 100.262 201.572C96.45 202.028 92.6117 201.154 88.7727 201.09C83.6101 201.004 78.4168 202.38 73.3251 201.52C71.8587 201.273 70.2993 200.751 69.4931 199.498C68.9339 198.629 68.833 197.551 68.7474 196.52C68.1435 189.247 67.5397 181.973 66.9358 174.7C66.8954 174.213 67.2565 173.487 67.6295 173.802C68.2953 180.807 68.9611 187.813 69.6269 194.819C69.717 195.767 69.8149 196.743 70.2545 197.587C70.8925 198.813 72.1799 199.593 73.5147 199.94C74.8494 200.287 76.2485 200.259 77.6272 200.241C83.4606 200.165 89.2968 200.31 95.1192 200.678C97.0663 200.8 99.0343 200.947 100.958 200.619C102.881 200.292 104.79 199.432 105.984 197.885C107.684 195.68 107.613 192.63 107.463 189.847Z" fill="#00160A"/>
<path fill-rule="evenodd" clip-rule="evenodd" d="M97.5639 97.1707C98.1067 96.7458 97.6503 95.8756 97.7573 95.1933C97.9086 94.2282 99.1061 93.8967 100.074 93.7845C106.289 93.0641 112.548 92.7234 118.805 92.765C119.325 92.7684 119.941 92.8266 120.203 93.2778C120.518 93.8195 120.224 94.7648 120.82 94.9545C121.1 95.0436 121.459 94.8788 121.671 95.0823C122.021 95.4189 121.368 95.8737 120.885 95.9172C113.563 96.5763 106.226 97.0586 98.8806 97.3635C98.4312 97.3822 97.9547 97.3939 97.5639 97.1707M119.435 94.1296C119.264 93.6983 118.691 93.6351 118.229 93.6422C112.33 93.7322 106.434 94.0246 100.555 94.5188C99.866 94.5767 99.0525 94.7209 98.7652 95.3519C98.6272 95.7107 98.8904 96.1234 99.2378 96.2862C99.5852 96.4491 99.9867 96.4281 100.369 96.4037C106.242 96.0301 112.115 95.6564 117.987 95.2828C118.349 95.2598 118.725 95.2323 119.037 95.0471C119.349 94.862 119.569 94.4671 119.435 94.1296Z" fill="#00160A"/>
<path fill-rule="evenodd" clip-rule="evenodd" d="M127.35 180.56C128.256 181.282 127.869 182.863 128.657 183.713C129.023 184.108 129.572 184.262 130.088 184.414C130.419 184.511 130.83 184.756 130.725 185.086C130.617 185.424 130.125 185.369 129.796 185.24C128.719 184.817 127.506 184.114 127.446 182.956C127.403 182.111 127.153 181.277 126.723 180.549C126.844 180.343 127.164 180.412 127.35 180.56V180.56Z" fill="#00160A"/>
<path fill-rule="evenodd" clip-rule="evenodd" d="M131.634 192.534C131.339 188.723 131.044 184.913 130.749 181.103C130.705 180.543 130.656 179.962 130.379 179.474C130.103 178.985 129.53 178.617 128.989 178.763C126.542 179.421 124 179.727 121.467 179.666C119.253 179.614 116.986 179.289 114.856 179.898C114.895 180.956 114.935 182.014 114.974 183.072C114.986 183.381 115.003 183.709 115.179 183.964C115.67 184.677 116.89 184.133 117.167 183.312C117.444 182.491 117.194 181.593 117.242 180.727C117.25 180.574 117.281 180.4 117.411 180.318C117.687 180.146 117.953 180.558 118.024 180.876C118.227 181.789 118.43 182.745 118.19 183.649C117.95 184.553 117.114 185.373 116.189 185.253C115.23 185.129 114.838 186.443 114.815 187.412C114.768 189.347 114.722 191.281 114.676 193.215C114.661 193.824 114.879 194.665 115.483 194.596C117.04 194.419 118.597 194.242 120.155 194.065C120.531 194.022 120.936 193.984 121.267 194.169C121.598 194.354 121.773 194.856 121.502 195.122C119.673 195.282 117.843 195.443 116.014 195.604C115.48 195.651 114.926 195.695 114.422 195.512C113.918 195.328 113.479 194.847 113.524 194.311C113.974 189.05 114.075 183.758 113.826 178.483C113.773 177.361 115.135 176.791 116.236 176.584C119.731 175.927 123.295 175.642 126.849 175.736C128.041 175.767 129.339 175.885 130.203 176.709C131.083 177.547 131.256 178.868 131.377 180.079C131.832 184.618 132.286 189.157 132.741 193.696C132.766 193.941 132.771 194.232 132.576 194.381C132.46 194.469 132.303 194.479 132.157 194.485C130.64 194.548 129.124 194.612 127.607 194.675C126.803 194.708 125.938 194.726 125.269 194.278C124.81 193.971 124.507 193.483 124.24 192.999C123.601 191.837 123.09 190.603 122.72 189.329C122.14 190.786 121.772 192.328 121.633 193.89C120.9 193.97 120.764 192.867 120.934 192.147C121.286 190.663 121.638 189.178 121.989 187.693C122.043 187.467 122.128 187.205 122.349 187.136C122.674 187.033 122.924 187.424 123.043 187.744C123.538 189.079 124.033 190.414 124.529 191.75C124.955 192.899 126.185 193.589 127.399 193.731C128.614 193.872 129.831 193.566 131.015 193.262C131.249 193.202 131.515 193.115 131.606 192.89C131.651 192.779 131.643 192.654 131.634 192.534ZM115.132 178.583C116.23 178.597 117.329 178.611 118.427 178.626C119.252 178.636 120.078 178.647 120.903 178.631C123.882 178.575 126.854 178.174 129.742 177.44C129.098 176.776 128.065 176.739 127.142 176.756C123.838 176.815 120.537 177.008 117.249 177.333C116.369 177.42 115.275 177.708 115.132 178.583L115.132 178.583Z" fill="#00160A"/>
<path fill-rule="evenodd" clip-rule="evenodd" d="M110.215 175.73C110.152 175.385 110.598 175.197 110.943 175.143C114.928 174.524 118.966 174.25 122.998 174.326C123.056 174.327 123.116 174.329 123.169 174.351C123.358 174.43 123.35 174.729 123.199 174.869C123.049 175.009 122.828 175.033 122.624 175.048C118.784 175.337 114.889 175.188 111.127 176.012C110.778 176.088 110.28 176.082 110.215 175.73L110.215 175.73Z" fill="#00160A"/>
<path fill-rule="evenodd" clip-rule="evenodd" d="M199.336 167.454C199.556 166.934 199.799 166.384 200.266 166.067C200.66 165.8 201.154 165.741 201.626 165.69C203.029 165.537 204.432 165.384 205.835 165.232C206.529 165.156 207.425 164.863 207.399 164.163C207.313 161.904 207.488 159.302 209.277 157.927C210.914 156.67 213.365 157.015 215.044 158.214C216.724 159.414 217.788 161.283 218.706 163.135C219.112 163.955 220.225 164.104 221.124 163.946C222.024 163.788 222.936 163.433 223.823 163.65C225.189 163.982 225.88 165.479 226.349 166.808C228.706 173.478 230.305 180.432 233.236 186.869C234.332 189.277 233.985 192.281 232.369 194.374C232.17 192.712 232.447 190.996 233.16 189.482C233.496 188.769 232.378 188.301 231.592 188.303C223.58 188.323 215.534 188.346 207.61 189.538C207.368 189.575 207.111 189.619 206.931 189.785C206.756 189.946 206.687 190.19 206.627 190.421C206.381 191.357 206.135 192.293 205.89 193.229C205.736 193.815 205.832 194.725 206.434 194.664C214.275 193.868 222.159 193.488 230.041 193.527C230.87 193.531 232.001 193.861 231.894 194.685C223.498 194.784 215.07 194.886 206.765 196.126C205.442 196.323 204.529 194.681 204.679 193.348C204.829 192.016 205.591 190.82 205.806 189.497C205.991 188.356 205.759 187.192 205.51 186.064C205.114 184.27 204.672 182.486 204.183 180.715C203.706 178.987 203.186 177.271 202.666 175.556C201.879 172.961 201.092 170.366 200.305 167.771C199.223 169.36 198.74 171.351 198.975 173.261C199.138 174.591 199.63 175.854 199.998 177.142C200.525 178.984 200.801 180.886 201.076 182.782C201.618 186.516 202.159 190.25 202.701 193.984C202.781 194.534 202.624 195.343 202.076 195.262C199.641 187.707 200.309 179.354 197.436 171.955C198.069 170.455 198.702 168.955 199.336 167.454ZM217.471 168.825C218.265 168.382 218.676 167.349 218.404 166.48C218.132 165.611 217.206 164.999 216.302 165.091C214.087 165.316 211.872 165.541 209.656 165.766C209.452 165.787 209.223 165.821 209.1 165.986C209.003 166.116 209.001 166.293 209.01 166.455C209.069 167.47 209.421 168.467 210.011 169.294C210.47 169.936 211.104 170.705 210.746 171.409C210.298 172.289 208.827 171.796 208.463 170.878C208.098 169.961 208.357 168.926 208.289 167.941C208.222 166.956 207.516 165.822 206.545 165.986C204.952 166.255 203.36 166.524 201.768 166.793C201.539 166.831 201.241 166.973 201.308 167.195C203.247 173.632 205.186 180.069 207.125 186.506C207.366 187.308 207.911 188.301 208.725 188.111C216.193 186.361 224.067 188.016 231.65 186.866C229.379 179.722 227.028 172.603 224.6 165.512C224.528 165.302 224.447 165.08 224.269 164.949C224.072 164.805 223.806 164.809 223.562 164.819C222.425 164.868 221.287 164.916 220.15 164.964C219.7 164.983 219.087 165.199 219.185 165.639C219.494 167.021 219.803 168.404 220.112 169.786C220.166 170.023 220.218 170.278 220.129 170.505C219.889 171.123 218.982 170.967 218.377 170.7C217.98 170.524 217.562 170.332 217.317 169.973C217.072 169.614 217.092 169.036 217.471 168.825ZM214.54 158.798C213.668 158.156 212.52 157.693 211.514 158.09C211.163 158.229 210.858 158.462 210.559 158.692C210.025 159.101 209.476 159.53 209.161 160.125C208.868 160.679 208.808 161.322 208.753 161.947C208.706 162.492 208.658 163.038 208.61 163.584C208.58 163.922 208.568 164.311 208.813 164.546C209.048 164.772 209.416 164.755 209.739 164.724C212.057 164.503 214.374 164.282 216.691 164.061C217.021 164.03 217.424 163.94 217.511 163.619C217.546 163.492 217.518 163.357 217.487 163.23C217.06 161.469 215.997 159.87 214.54 158.798M213.672 164.571C213.439 164.637 213.698 165.076 213.868 164.902C214.085 164.813 213.844 164.404 213.662 164.552L213.672 164.571Z" fill="#BA9FFB"/>
<path fill-rule="evenodd" clip-rule="evenodd" d="M140.21 112.329C140.169 112.193 140.25 112.05 140.345 111.945C140.812 111.43 141.594 111.391 142.288 111.39C146.498 111.38 150.708 111.37 154.918 111.36C155.215 111.36 155.532 111.365 155.774 111.537C156.016 111.709 156.11 112.114 155.878 112.298C155.755 112.396 155.584 112.402 155.426 112.404C150.535 112.459 145.644 112.513 140.753 112.568C140.54 112.57 140.271 112.534 140.21 112.329Z" fill="#00160A"/>
<path fill-rule="evenodd" clip-rule="evenodd" d="M141.77 116.688C141.517 116.542 141.552 116.132 141.765 115.931C141.978 115.73 142.289 115.683 142.58 115.647C144.323 115.437 146.075 115.321 147.827 115.205C148.792 115.141 149.757 115.078 150.722 115.014C151.977 114.931 153.231 114.848 154.486 114.765C154.885 114.739 155.329 114.727 155.63 114.992C155.93 115.256 155.857 115.892 155.458 115.916C151.03 116.192 146.602 116.467 142.173 116.742C142.036 116.75 141.89 116.757 141.77 116.688L141.77 116.688Z" fill="#00160A"/>
<path fill-rule="evenodd" clip-rule="evenodd" d="M165.507 122.43C165.841 121.793 166.204 121.124 166.82 120.752C167.435 120.38 168.38 120.457 168.711 121.097C169.064 121.777 168.539 122.597 167.923 123.051C167.307 123.506 166.549 123.826 166.149 124.479C168.312 125.909 170.476 127.339 172.639 128.769C174.334 129.889 176.251 131.488 175.905 133.494C175.701 134.67 174.708 135.584 173.601 136.022C172.494 136.461 171.278 136.507 170.088 136.541C162.095 136.772 154.093 136.731 146.102 136.419C145.548 136.398 144.93 136.346 144.56 135.931C144.274 135.609 144.215 135.15 144.169 134.721C143.709 130.456 143.249 126.19 142.789 121.924C142.772 121.766 142.756 121.602 142.812 121.454C143.049 120.831 143.978 121.215 144.497 121.63C148.176 124.575 154.056 124.229 157.366 120.873C158.166 120.062 159.528 120.167 160.555 120.656C161.583 121.145 162.442 121.94 163.473 122.422C163.363 121.825 163.889 121.194 164.495 121.196C165.101 121.199 165.621 121.834 165.507 122.43ZM165.959 125.179C165.696 124.211 164.27 124.008 163.483 124.627C162.696 125.247 162.441 126.326 162.373 127.327C162.347 127.7 161.735 127.737 161.525 127.428C161.316 127.118 161.401 126.701 161.517 126.346C161.824 125.407 162.298 124.524 162.908 123.749C163.21 123.365 162.767 122.846 162.368 122.565C160.961 121.573 158.968 120.593 157.677 121.734C154.139 124.859 148.496 125.276 144.54 122.703C144.587 125.905 144.823 129.105 145.244 132.279C145.287 132.599 145.341 132.941 145.562 133.176C145.853 133.487 146.33 133.509 146.756 133.509C153.628 133.518 160.5 133.527 167.371 133.535C168.04 133.536 168.949 133.297 168.897 132.628C168.776 131.072 169.463 129.475 170.674 128.495C169.721 127.801 168.768 127.107 167.815 126.412C167.524 126.2 167.22 125.983 166.866 125.922C165.797 125.738 165.082 126.967 164.704 127.987C164.125 126.948 164.8 125.436 165.959 125.179ZM147.999 135.804C155.155 135.86 162.311 135.848 169.467 135.768C171.499 135.745 173.871 135.538 174.972 133.826C165.091 134.261 155.195 134.369 145.307 134.149C145.184 135.339 146.806 135.794 147.999 135.804M172.489 129.406C172.276 129.271 172.056 129.133 171.807 129.09C171.058 128.961 170.467 129.712 170.141 130.401C169.953 130.799 169.79 131.209 169.652 131.628C169.547 131.947 169.456 132.286 169.522 132.616C169.588 132.945 169.858 133.257 170.192 133.26C171.409 133.274 172.626 133.261 173.842 133.221C174.129 133.212 174.441 133.192 174.656 133.001C174.909 132.776 174.94 132.388 174.877 132.055C174.647 130.851 173.522 130.063 172.489 129.406ZM168.19 121.615C168.177 121.243 167.682 121.055 167.34 121.198C166.998 121.341 166.788 121.682 166.6 122.003C166.373 122.391 166.146 122.778 165.919 123.166C165.8 123.369 165.735 123.715 165.964 123.766C166.569 123.262 167.173 122.758 167.777 122.255C167.979 122.086 168.2 121.879 168.19 121.615ZM164.275 122.221C164.173 122.722 164.429 123.276 164.877 123.521C165.032 123.004 164.941 122.42 164.636 121.975C164.618 121.85 164.448 121.777 164.344 121.85C164.264 121.952 164.236 122.091 164.27 122.216L164.275 122.221Z" fill="#00160A"/>
<path fill-rule="evenodd" clip-rule="evenodd" d="M139.672 107.442C139.49 106.56 139.308 105.678 139.127 104.796C139.056 104.454 138.991 104.073 139.171 103.773C139.415 103.363 139.974 103.309 140.45 103.301C152.13 103.097 163.815 103.141 175.493 103.434C176.29 103.454 176.944 104.144 177.186 104.906C177.429 105.667 177.349 106.489 177.267 107.285C177.223 107.714 177.152 108.193 176.81 108.456C176.53 108.672 176.148 108.677 175.796 108.673C164.066 108.545 152.336 108.416 140.606 108.288C140.413 108.286 140.208 108.281 140.045 108.177C139.806 108.026 139.729 107.719 139.672 107.442ZM141.285 104.074C140.422 104.068 139.809 105.096 140.025 105.935C140.241 106.774 141.049 107.351 141.888 107.555C142.727 107.758 143.605 107.66 144.465 107.579C155.058 106.586 165.77 108.484 176.355 107.413C176.411 106.767 176.464 106.1 176.256 105.486C176.049 104.871 175.508 104.321 174.862 104.317C163.67 104.236 152.477 104.155 141.285 104.074Z" fill="#00160A"/>
<path fill-rule="evenodd" clip-rule="evenodd" d="M69.24 132.983C68.849 133.726 68.3099 134.481 67.5016 134.702C65.9621 135.124 64.6891 133.409 64.269 131.865C63.6131 129.455 63.779 126.828 64.7329 124.52C65.2432 123.285 64.8178 121.825 64.0177 120.756C62.5087 118.74 59.6938 117.857 57.2751 118.543C54.8564 119.229 52.9477 121.386 52.4417 123.856C52.3625 124.242 52.4185 124.785 52.8082 124.84C54.7521 125.113 55.6445 127.401 55.9405 129.348C56.1665 130.834 56.2647 132.391 55.7621 133.807C55.2595 135.223 54.0294 136.467 52.535 136.581C51.1939 135.675 50.1842 134.287 49.7338 132.729C48.8962 129.833 49.9843 126.762 51.1077 123.964C51.7934 122.257 52.5294 120.509 53.8318 119.212C56.6159 116.44 61.8145 116.769 64.2291 119.87C65.1579 121.063 65.6908 122.545 66.7201 123.652C67.4959 124.486 68.5217 125.07 69.2295 125.963C70.7668 127.903 70.3929 130.792 69.24 132.983ZM50.5856 127.628C49.8806 129.577 50.077 131.833 51.1078 133.63C51.2772 133.925 51.4786 134.218 51.7746 134.385C52.0705 134.552 52.483 134.555 52.717 134.308C53.418 133.569 53.5057 132.451 53.5033 131.431C53.5006 130.224 53.4264 129.018 53.2813 127.82C53.2219 127.33 53.1206 126.788 52.7253 126.493C52.33 126.199 51.5879 126.445 51.65 126.935C51.8306 128.361 52.0113 129.786 52.1919 131.212C52.233 131.536 52.2692 131.887 52.1072 132.171C51.9451 132.454 51.4976 132.586 51.2925 132.332C50.7609 131.244 50.6006 129.978 50.8442 128.791C50.9319 128.365 50.9923 127.781 50.5856 127.628M66.8582 133.282C67.0378 133.141 67.1217 132.913 67.1887 132.694C67.7158 130.978 67.7214 129.104 67.2047 127.385C67.0083 126.731 66.476 125.966 65.8312 126.185C65.4586 126.312 65.2697 126.721 65.1511 127.097C64.6119 128.807 64.6836 130.703 65.3503 132.366C65.478 132.685 65.636 133.007 65.9066 133.218C66.1772 133.428 66.5882 133.493 66.8582 133.282ZM54.206 127.113C54.6757 129.5 54.5758 131.999 53.917 134.341C53.8564 134.556 54.1001 134.724 54.3043 134.815C55.2925 132.411 55.4177 129.661 54.6518 127.176C54.5249 127.085 54.3531 127.061 54.206 127.113ZM67.9167 126.468C67.7707 126.702 67.6247 126.936 67.4787 127.169C67.96 127.088 68.1802 127.746 68.2059 128.235C68.2655 129.365 68.325 130.495 68.3846 131.625C68.8328 131.456 68.9139 130.866 68.9223 130.386C68.9411 129.305 68.9599 128.224 68.9787 127.143C68.8173 127.124 68.6558 127.105 68.4944 127.086C68.4778 126.78 68.2204 126.504 67.9167 126.468Z" fill="#00160A"/>
<path fill-rule="evenodd" clip-rule="evenodd" d="M120.758 128.519C117.547 128.365 114.322 128.505 111.135 128.936C110.853 128.974 110.538 129.006 110.311 128.833C110.085 128.661 110.109 128.203 110.392 128.172C113.579 127.821 116.779 127.595 119.983 127.495C120.331 127.484 120.721 127.49 120.97 127.736C121.218 127.981 121.106 128.536 120.758 128.519Z" fill="#00160A"/>
<path fill-rule="evenodd" clip-rule="evenodd" d="M46.162 115.658C47.0736 115.572 47.9852 115.486 48.8969 115.401C49.3561 115.357 49.8154 115.314 50.2746 115.271C53.1957 114.996 56.1169 114.72 59.0408 114.475C59.1556 114.466 59.2755 114.457 59.3819 114.501C59.6983 114.633 59.6497 115.146 59.3739 115.35C59.0982 115.554 58.7253 115.542 58.3828 115.531C54.0769 115.387 49.7857 116.685 45.4997 116.246C45.2211 116.217 44.8569 116.073 44.906 115.797C45.323 115.737 45.7426 115.698 46.162 115.658Z" fill="#00160A"/>
<path fill-rule="evenodd" clip-rule="evenodd" d="M144.354 210.563C144.21 209.306 144.107 207.937 143.264 206.995C142.617 206.272 142.952 204.929 143.862 204.596C144.772 204.263 145.89 205.076 145.859 206.047C145.848 206.38 145.727 206.698 145.633 207.018C144.99 209.202 145.587 211.553 146.373 213.689C147.169 215.853 148.388 218.156 150.576 218.868C153.106 219.69 155.907 217.869 157.028 215.45C158.15 213.03 157.979 210.221 157.588 207.582C157.548 207.317 157.478 207.012 157.235 206.9C156.251 206.444 156.102 204.842 156.985 204.211C157.868 203.58 159.328 204.245 159.436 205.327C159.473 205.694 159.38 206.059 159.31 206.422C158.826 208.935 159.466 211.57 158.936 214.074C158.604 215.641 157.809 217.107 156.676 218.238C155.475 219.437 153.853 220.264 152.159 220.293C149.878 220.331 147.745 218.912 146.455 217.025C145.166 215.137 144.613 212.837 144.354 210.563Z" fill="#00160A"/>
<path fill-rule="evenodd" clip-rule="evenodd" d="M77.8279 107.304C77.8913 108.166 77.9518 109.053 77.6841 109.875C77.4165 110.696 76.7364 111.444 75.8782 111.518C71.4545 111.899 67.0302 112.281 62.598 112.544C56.5543 112.902 50.5001 113.041 44.4474 113.179C44.2315 113.184 44.0004 113.184 43.8202 113.065C43.5498 112.886 43.4991 112.516 43.4741 112.192C43.4087 111.343 43.3432 110.495 43.2778 109.646C43.2579 109.388 43.2428 109.109 43.3815 108.891C43.5846 108.571 44.0194 108.516 44.3968 108.494C55.529 107.832 66.6769 107.435 77.8279 107.304ZM75.9654 110.281C76.6766 110.234 76.8206 109.111 76.2991 108.624C75.7776 108.136 74.9857 108.125 74.2731 108.143C65.1114 108.372 55.9464 108.6 46.803 109.224C46.1445 109.269 45.4595 109.324 44.8903 109.659C44.3211 109.994 43.9101 110.698 44.1276 111.323C44.4365 112.211 45.6308 112.309 46.5663 112.246C56.366 111.591 66.1657 110.936 75.9654 110.281Z" fill="#00160A"/>
<path fill-rule="evenodd" clip-rule="evenodd" d="M66.453 128.748C66.4618 128.982 66.4706 129.215 66.4794 129.449C66.4976 129.934 66.5158 130.423 66.4458 130.905C65.8384 130.84 65.65 130.056 65.6146 129.445C65.5977 129.154 65.592 128.829 65.7863 128.612C65.9806 128.395 66.4421 128.457 66.453 128.748L66.453 128.748Z" fill="#00160A"/>
<path fill-rule="evenodd" clip-rule="evenodd" d="M110.195 130.738C110.791 130.186 111.697 130.203 112.508 130.226C115.073 130.299 117.646 130.1 120.17 129.634C120.467 129.579 120.627 130.043 120.442 130.283C120.257 130.523 119.922 130.573 119.621 130.604C116.776 130.894 113.92 131.066 111.062 131.119C110.721 131.125 110.289 131.066 110.195 130.738Z" fill="#00160A"/>
<path fill-rule="evenodd" clip-rule="evenodd" d="M205.955 140.383C205.674 141.337 204.74 141.927 203.848 142.364C199.388 144.552 194.144 145.088 189.335 143.847C187.72 143.43 185.88 142.466 185.811 140.795C185.76 139.566 186.738 138.536 187.774 137.878C189.362 136.868 191.214 136.358 193.06 135.998C196.622 135.304 200.483 135.161 203.707 136.83C205.058 137.529 206.386 138.921 205.955 140.383ZM186.912 140.609C186.915 141.958 188.417 142.749 189.718 143.091C194.239 144.281 199.184 143.767 203.366 141.675C204.037 141.339 204.745 140.896 204.958 140.175C205.245 139.207 204.496 138.231 203.666 137.659C201.167 135.936 197.862 136.172 194.847 136.496C192.421 136.756 189.836 137.097 187.986 138.693C187.415 139.186 186.911 139.852 186.912 140.609H186.912Z" fill="#00160A"/>
<path fill-rule="evenodd" clip-rule="evenodd" d="M74.7152 61.3211C74.563 60.4534 75.1597 59.5911 75.9286 59.1649C76.6974 58.7388 77.6036 58.6565 78.4805 58.6048C86.2987 58.1434 94.1046 59.4028 101.926 59.8167C102.932 59.87 103.994 59.9258 104.84 60.4743C105.687 61.0228 106.184 62.2537 105.598 63.0765C105.315 63.4743 104.847 63.6954 104.382 63.8427C103.041 64.2675 101.602 64.2111 100.197 64.1506C92.8858 63.8353 85.5743 63.52 78.2628 63.2048C76.8112 63.1422 74.9668 62.7563 74.7152 61.3211M75.7187 60.0636C75.3055 60.6476 75.6513 61.5188 76.2482 61.9116C76.8451 62.3045 77.5971 62.3487 78.3103 62.3809C86.0592 62.7307 93.808 63.0804 101.557 63.4302C102.312 63.4643 103.148 63.4717 103.72 62.9763C104.292 62.4809 104.217 61.2994 103.47 61.1804C94.8536 59.8064 86.1098 59.2357 77.3884 59.4783C76.776 59.4953 76.0732 59.5626 75.7187 60.0636" fill="#00160A"/>
<path fill-rule="evenodd" clip-rule="evenodd" d="M160.449 53.7907C161.639 51.3052 163.567 48.7431 166.308 48.5312C168.133 48.39 170.07 48.7103 171.515 49.8384C174.136 51.8845 174.319 55.8522 173.382 59.048C172.278 62.8148 169.815 66.3035 166.281 67.9929C165.439 68.3959 164.522 68.6971 163.589 68.6604C161.11 68.5628 159.305 66.12 158.771 63.6899C158.039 60.3594 158.978 56.8654 160.449 53.7907ZM163.532 67.7506C165.365 68.0009 167.091 66.8302 168.384 65.5037C170.807 63.0176 172.434 59.7624 172.97 56.3276C173.124 55.3378 173.188 54.3107 172.92 53.3457C172.392 51.4476 170.598 50.0758 168.673 49.6812C166.822 49.3016 164.787 49.7545 163.36 50.9967C162.674 51.5937 162.142 52.3477 161.677 53.1299C160.16 55.6817 159.297 58.6511 159.403 61.6202C159.451 62.9615 159.704 64.3248 160.381 65.4825C161.058 66.6402 162.206 67.5695 163.532 67.7506Z" fill="#BA9FFB"/>
<path fill-rule="evenodd" clip-rule="evenodd" d="M100.353 159.28C100.597 159.267 100.858 159.258 101.065 159.389C101.319 159.55 101.413 159.872 101.486 160.165C101.647 160.808 101.808 161.476 101.679 162.125C101.55 162.774 101.039 163.398 100.379 163.427C98.6965 163.501 97.0139 163.575 95.3313 163.648C94.6715 163.677 93.8984 163.772 93.5705 164.347C93.3483 164.736 93.4144 165.22 93.4872 165.663C93.6935 166.919 94.2765 168.506 95.5444 168.46C96.3877 168.429 97.1394 169.071 97.5024 169.835C97.8654 170.599 97.9197 171.469 97.9679 172.314C98.0133 173.109 97.811 174.196 97.0169 174.216C96.3764 174.232 96.1998 175.1 96.2201 175.742C96.3616 180.209 96.503 184.675 96.6445 189.142C96.6672 189.861 95.7477 190.164 95.0334 190.236C89.0477 190.842 82.9997 190.826 77.0172 190.189C76.8027 190.166 76.5287 190.082 76.524 189.865C76.4133 184.818 76.3025 179.772 76.1918 174.725C76.1854 174.431 76.0414 174.024 75.7585 174.102C74.867 174.346 73.9706 173.516 73.7859 172.608C73.6013 171.7 73.918 170.772 74.2301 169.9C74.3743 169.497 74.5362 169.069 74.8813 168.816C75.6181 168.276 76.9801 168.661 77.3101 167.807C77.3647 167.666 77.3752 167.512 77.3699 167.361C77.3238 166.043 76.1002 165.003 74.8112 164.742C73.5222 164.482 72.1937 164.824 70.9384 165.217C70.6507 164.128 70.577 162.983 70.7227 161.866C70.7571 161.603 70.8105 161.326 70.9871 161.128C71.2388 160.845 71.6582 160.806 72.0355 160.786C81.4747 160.284 90.9139 159.782 100.353 159.28ZM75.1863 169.505C75.0049 169.716 74.9646 170.011 74.9319 170.288C74.8467 171.01 74.7615 171.732 74.6763 172.454C74.6584 172.606 74.6416 172.766 74.7026 172.906C74.8333 173.206 75.2285 173.258 75.5549 173.266C77.2877 173.31 79.0206 173.353 80.7534 173.396C81.0456 173.403 81.3522 173.407 81.6117 173.272C82.0291 173.055 82.2006 172.466 81.965 172.058C82.1771 172.036 82.3891 172.014 82.6012 171.993C82.5078 172.622 83.1474 173.15 83.7755 173.242C84.4035 173.335 85.0347 173.142 85.6674 173.092C86.9942 172.987 88.319 173.509 89.6407 173.352C89.7798 173.336 89.9282 173.307 90.0256 173.206C90.1528 173.074 90.1504 172.867 90.14 172.684C90.0899 171.804 90.0398 170.924 89.9897 170.044C89.9739 169.767 89.9502 169.469 89.7727 169.256C89.5192 168.952 89.0649 168.942 88.6701 168.957C86.7624 169.032 84.8547 169.106 82.947 169.18C82.8137 169.185 82.6663 169.196 82.574 169.293C82.4705 169.401 82.4778 169.57 82.4917 169.719C82.5559 170.404 82.62 171.089 82.6841 171.774C82.4309 171.798 82.1827 171.873 81.9575 171.991C81.9012 171.452 81.8448 170.912 81.7885 170.372C81.7372 169.881 81.5449 169.25 81.0519 169.244C79.4774 169.223 77.9029 169.202 76.3283 169.18C75.9191 169.175 75.4535 169.194 75.1863 169.505ZM84.2578 174.813C84.2315 174.45 84.0745 173.969 83.7134 174.008C81.4682 174.25 79.1958 174.236 76.9538 173.966C77.009 178.866 77.1001 183.766 77.2268 188.665C77.2431 189.295 78.0365 189.548 78.662 189.612C80.5202 189.803 82.3913 189.868 84.2582 189.807C84.4113 189.802 84.577 189.791 84.6936 189.692C84.8469 189.561 84.8569 189.331 84.8546 189.129C84.8012 184.353 84.6021 179.578 84.2578 174.813ZM95.4855 174.543C95.4241 174.438 95.2842 174.416 95.1628 174.405C93.2314 174.241 91.29 174.195 89.353 174.267C89.1775 174.274 88.9896 174.286 88.8506 174.393C88.6394 174.557 88.6265 174.867 88.6323 175.134C88.7391 180.025 88.8459 184.915 88.9527 189.806C91.0851 190.012 93.2562 189.81 95.3144 189.214C95.4424 189.177 95.5783 189.133 95.661 189.028C95.7503 188.915 95.7563 188.759 95.7581 188.615C95.7985 185.469 95.7175 182.322 95.6365 179.176C95.5983 177.694 95.5602 176.212 95.522 174.73C95.5204 174.666 95.5179 174.599 95.4855 174.543ZM71.537 162.146C71.1666 162.73 71.5647 163.554 72.1733 163.88C72.7819 164.206 73.5112 164.175 74.2002 164.135C78.3681 163.892 82.536 163.65 86.7039 163.408C90.6786 163.177 94.6538 162.946 98.6221 162.622C99.2034 162.575 99.814 162.515 100.294 162.183C100.774 161.851 101.053 161.15 100.731 160.662C100.408 160.173 99.7134 160.151 99.1292 160.181C90.4688 160.629 81.8083 161.077 73.1479 161.525C72.5497 161.556 71.8584 161.639 71.537 162.146M88.196 189.692C87.9032 184.918 87.8452 180.129 88.0223 175.35C88.0325 175.075 88.0415 174.79 87.9322 174.537C87.6132 173.802 86.5872 173.804 85.7965 173.926C85.435 173.983 84.9735 174.156 85.0007 174.522C85.3396 179.094 85.6788 183.673 85.6027 188.257C85.5926 188.864 85.939 189.464 86.469 189.757C86.999 190.05 87.6896 190.024 88.196 189.692ZM97.1405 172.068C97.0375 171.437 96.9298 170.792 96.6232 170.232C96.3165 169.671 95.7673 169.202 95.1307 169.17C93.9214 169.11 92.712 169.049 91.5026 168.989C91.1878 168.973 90.7528 169.068 90.768 169.384C90.814 170.344 90.8601 171.304 90.9062 172.264C90.9263 172.683 91.0042 173.189 91.3913 173.348C91.5161 173.399 91.6545 173.403 91.7893 173.406C93.3661 173.442 94.9429 173.478 96.5196 173.514C96.8205 173.521 97.0728 173.256 97.155 172.965C97.2372 172.675 97.1891 172.365 97.1405 172.068ZM89.5061 167.337C89.3482 166.671 89.1837 165.989 88.806 165.418C88.4283 164.847 87.7872 164.401 87.106 164.451C86.0561 164.529 85.0062 164.606 83.9563 164.684C83.3022 164.732 82.5615 164.826 82.1781 165.36C81.7144 166.005 82.0324 166.906 81.9072 167.692C81.8632 167.968 82.0782 168.232 82.3355 168.339C82.5928 168.446 82.8819 168.434 83.1602 168.419C85.0396 168.322 86.9191 168.225 88.7985 168.128C89.0744 168.114 89.4055 168.064 89.5155 167.81C89.5791 167.662 89.5431 167.493 89.5061 167.337ZM92.7996 166.13C92.442 165.639 92.4509 164.911 92.8203 164.429C92.1616 164.018 91.239 164.094 90.6556 164.607C90.0723 165.119 89.8759 166.026 90.1947 166.735C90.3071 166.985 90.2427 167.281 90.3219 167.544C90.4343 167.917 90.8231 168.151 91.2085 168.199C91.5939 168.246 91.9805 168.145 92.3557 168.044C92.8478 167.912 93.4468 167.648 93.442 167.138C93.4382 166.73 93.0393 166.459 92.7996 166.13ZM81.0548 167.879C81.273 167.163 80.9795 166.347 80.4191 165.852C79.8587 165.357 79.0738 165.164 78.3303 165.231C78.0315 165.258 77.7199 165.333 77.5037 165.541C77.2875 165.75 77.2101 166.125 77.405 166.354C77.5489 166.523 77.7953 166.572 77.9459 166.735C78.1759 166.984 78.0983 167.381 78.2036 167.704C78.4415 168.432 79.4272 168.5 80.188 168.431C80.4483 168.407 80.7358 168.37 80.9071 168.172C80.9792 168.089 81.0226 167.985 81.0548 167.879ZM81.178 165.47C81.3544 165.299 81.3863 164.998 81.2499 164.794C80.9462 164.703 80.6065 164.884 80.4468 165.159C80.5656 165.432 80.8994 165.589 81.1847 165.507M89.8454 164.71C89.8897 164.59 89.8637 164.447 89.78 164.351C89.4918 164.26 89.1561 164.342 88.942 164.556C89.1623 164.807 89.5631 164.874 89.8531 164.71L89.8454 164.71Z" fill="#00160A"/>
<path fill-rule="evenodd" clip-rule="evenodd" d="M206.038 144.416C196.798 148.04 187.558 151.663 178.318 155.287C174.344 156.846 169.745 159.186 169.319 163.445C174.718 159.279 181.388 156.792 188.19 156.41C183.491 162.348 177.558 167.299 170.881 170.852C164.885 174.043 157.294 177.447 156.779 184.235C163.219 176.544 173.12 171.888 183.133 171.842C176.727 181.253 166.454 187.927 155.273 189.945C155.657 192.837 156.04 195.729 156.424 198.621C160.223 198.486 164.045 199.031 167.657 200.223C170.228 211.303 172.8 222.384 175.371 233.465C176.004 236.192 176.562 239.325 174.897 241.572C173.245 243.801 170.126 244.185 167.364 244.382C156.477 245.158 145.591 245.934 134.705 246.711C133.401 240.788 132.098 234.865 130.794 228.943C112.431 230.653 94.0679 232.363 75.7047 234.073C71.8376 234.433 67.7477 234.756 64.2484 233.066C51.5561 226.938 36.1661 238.8 22.7604 234.461C34.5387 234.238 46.2807 232.177 57.4347 228.376C61.4799 226.997 66.3232 223.22 64.2097 219.496C53.8658 226.735 40.5937 229.625 28.1882 227.34C28.9166 215.257 28.4481 203.101 26.792 191.111C35.619 189.844 44.318 187.683 52.7135 184.67C55.0488 183.832 57.4513 182.867 59.1143 181.021C60.7773 179.176 61.4497 176.194 59.9885 174.184C47.2191 181.008 32.4754 184.063 18.0551 182.871C18.8075 199.236 19.56 215.601 20.3124 231.966C18.1809 215.612 17.0506 199.128 16.9298 182.636C24.3527 181.976 31.7757 181.316 39.1986 180.656C38.0051 175.341 36.804 169.906 37.4171 164.493C38.0303 159.081 40.8077 153.6 45.6898 151.213C41.9963 143.312 36.4143 136.307 29.5447 130.951C21.4915 124.674 11.1377 119.941 7.46014 110.399C5.02857 104.09 6.22129 96.7519 9.58819 90.8913C12.9551 85.0307 18.2903 80.5162 24.0889 77.0629C16.1055 75.0048 10.0585 67.0231 10.2203 58.7574C10.3821 50.4917 16.7368 42.7542 24.7946 41.0119C20.9955 36.4713 15.0134 34.3901 10.6438 30.3989C5.55364 25.7494 2.99577 18.2493 4.84993 11.5993C6.70409 4.9492 13.2324 -0.282946 20.1109 0.0118739C25.761 0.254042 30.7332 3.83819 34.6771 7.90326C40.7936 14.2077 45.3426 22.0306 47.802 30.4743C49.4413 36.1023 55.4491 38.9655 60.5227 41.878C65.5964 44.7906 70.8653 49.864 69.4358 55.5492C67.546 47.7696 61.1999 41.2485 53.4913 39.165C49.4746 38.0794 48.0107 33.2854 46.7187 29.3194C44.2044 21.6018 39.9124 14.4728 34.2732 8.64777C30.0353 4.27015 24.4945 0.450168 18.4197 0.779048C12.1661 1.11761 6.65332 6.21967 5.22359 12.3351C3.79385 18.4505 6.19099 25.1514 10.754 29.4537C15.4018 33.8358 22.0509 35.9824 25.798 41.1602C17.6711 42.8166 11.2461 50.6608 11.2034 58.9782C11.1607 67.2957 17.5049 75.2057 25.6144 76.946C19.8995 80.3012 14.5519 84.5632 11.0261 90.1851C7.50019 95.807 5.98873 102.942 8.09843 109.238C12.9781 123.799 33.3167 127.275 40.4942 140.845C42.4381 134.441 39.5886 127.708 38.1241 121.177C36.6595 114.647 37.4873 106.26 43.5583 103.479C41.784 94.9018 40.0098 86.3249 38.2355 77.748C36.9133 71.3568 36.25 63.2594 41.7318 59.7413C37.8694 58.5398 34.4414 55.9807 32.1854 52.6147C34.6217 56.3549 39.314 58.4771 43.7218 57.8323C38.1517 45.7218 31.9756 33.8917 25.2244 22.4014C32.4989 33.4025 38.9369 44.9598 44.4644 56.9399C70.0295 56.2461 95.6346 57.0361 121.109 59.3045C124.491 59.6056 128.131 60.0441 130.631 62.3485C134.224 65.66 139.619 66.8678 144.275 65.4032C145.756 69.0863 146.846 73.2234 145.587 76.9887C144.327 80.754 139.867 83.628 136.302 81.9007C137.232 86.7031 138.163 91.5056 139.094 96.308C148.21 96.4179 157.325 96.6046 166.439 96.868C171.269 97.0077 176.317 97.2281 180.515 99.6281C184.713 102.028 187.675 107.345 185.805 111.813C186.998 108.12 188.191 104.427 189.383 100.734C193.587 107.426 195.651 115.448 195.202 123.345C196.659 121.122 198.115 118.9 199.571 116.678C194.397 108.511 193.739 97.6567 197.887 88.921C201.955 95.678 204.247 103.501 204.469 111.391C205.986 97.1706 216.032 84.2064 229.396 79.2209C227.078 84.5795 224.759 89.9382 222.44 95.2968C220.455 99.8849 217.933 104.974 213.163 106.431C210.016 107.393 205.46 107.334 204.889 110.584C213.927 108.207 223.547 108.089 232.64 110.244C225.633 118.693 212.131 120.774 202.918 114.824C198.572 119.685 194.807 125.068 191.728 130.821C196.958 124.302 205.097 120.225 213.435 119.948C208.956 125.258 203.903 130.082 198.393 134.307C201.317 134.589 204.479 134.976 206.6 137.014C208.721 139.052 208.774 143.343 206.038 144.416ZM84.0707 90.9001C86.4941 90.8719 89.2084 90.9583 90.9001 92.6989C92.1906 94.0267 92.5365 95.9853 92.8179 97.8181C94.1044 106.2 95.309 114.594 96.4315 122.999C96.7131 125.107 94.9507 127.052 92.9374 127.721C90.9241 128.389 88.7351 128.096 86.6356 127.796C88.3861 126.28 91.3414 127.366 93.2256 126.022C94.9154 124.816 94.9056 122.34 94.7033 120.269C93.9447 112.508 92.9117 104.774 91.6069 97.0856C91.3762 95.7266 91.0937 94.281 90.1339 93.2942C88.8558 91.9802 86.8133 91.8928 84.983 91.8905C77.4699 91.8811 69.9568 91.8717 62.4437 91.8623C61.1488 91.8607 59.7863 91.8761 58.6621 92.5206C55.4271 94.3751 56.6197 99.2733 58.2278 102.644C62.7835 101.718 67.4385 101.284 72.0864 101.352C76.204 101.412 81.3388 102.753 82.0331 106.824C83.5585 115.768 85.0839 124.711 86.6093 133.655C87.4091 138.345 87.85 144.042 84.1134 146.973C82.2463 148.438 79.7683 148.787 77.4168 149.085C71.6348 149.818 65.8527 150.551 60.0707 151.285C62.4789 172.433 64.8871 193.581 67.2953 214.729C67.5639 217.088 68.0557 219.8 70.1237 220.955C71.3471 221.638 72.8311 221.582 74.2294 221.506C92.6524 220.498 111.058 219.164 129.434 217.504C128.699 215.824 128.684 213.841 129.394 212.151C131.256 223.079 133.117 234.008 134.978 244.937C138.237 242.684 137.736 237.793 136.871 233.92C134.68 224.112 132.49 214.305 130.3 204.498C129.413 206.129 128.526 207.761 127.639 209.393C127.204 207.355 128.423 205.248 130.113 204.037C131.803 202.825 133.887 202.329 135.918 201.892C142.162 200.549 148.475 199.524 154.823 198.82C152.978 185.769 151.133 172.717 149.289 159.665C137.947 162.789 125.936 161.806 114.218 160.799C110.747 160.5 106.336 159.329 106.005 155.85C105.173 147.107 104.341 138.364 103.509 129.62C103.4 128.48 102.742 126.945 101.658 127.304C98.994 128.186 97.4096 124.379 97.1916 121.574C96.5075 112.775 95.8235 103.976 95.1395 95.1773C95.0498 94.0234 95.0265 92.6915 95.8845 91.9174C96.4852 91.3755 97.3504 91.2762 98.155 91.2024C103.895 90.676 109.636 90.1496 115.376 89.6232C118.654 89.3226 122.378 89.1672 124.763 91.4423C126.447 93.0481 127.011 95.4829 127.367 97.7857C128.022 102.03 128.239 106.341 128.013 110.63C127.558 106.438 127.103 102.246 126.648 98.0541C126.443 96.1679 126.193 94.168 125.005 92.6915C122.978 90.1715 119.205 90.2139 115.987 90.4794C110.239 90.9538 104.491 91.4282 98.743 91.9025C97.969 91.9664 97.1299 92.0583 96.5673 92.5952C95.8352 93.2939 95.8558 94.4503 95.929 95.4611C96.5449 103.965 97.1608 112.468 97.7767 120.972C97.8929 122.577 98.0511 124.292 99.0628 125.541C100.074 126.79 102.269 127.182 103.215 125.882C101.92 123.027 103.711 119.53 106.362 117.866C109.014 116.202 112.268 115.909 115.386 115.66C120.763 115.23 126.14 114.799 131.517 114.369C131.149 103.207 129.948 92.072 127.93 81.0885C126.07 80.5668 124.376 79.4643 123.144 77.973C122.222 80.3555 119.475 81.8696 116.976 81.3733C114.476 80.8769 112.512 78.4274 112.564 75.8723C112.268 78.8127 109.714 81.3631 106.781 81.6475C103.848 81.932 100.854 79.9195 100.001 77.0906C98.5969 78.6617 96.7743 80.0155 94.679 80.2068C92.5837 80.3981 90.266 79.071 89.9252 76.9887C87.1735 80.5691 80.7784 80.2058 78.4474 76.3367C76.0498 80.3053 69.2241 80.2077 66.9401 76.1723C65.9146 79.9031 60.1898 80.2016 57.4418 77.4848C54.6939 74.7681 54.159 70.583 53.7766 66.732C49.2407 71.1154 48.4223 78.1572 49.2832 84.4154C50.1442 90.6737 52.3876 96.7022 52.9318 102.996C54.1745 103.31 55.5375 103.112 56.6406 102.458C55.4491 98.8463 54.6655 93.9944 57.9 92.0079C59.1975 91.2111 60.803 91.1702 62.3242 91.1526C69.573 91.0684 76.8219 90.9843 84.0707 90.9001ZM155.88 151.677C165.389 151.204 175.198 152.447 184.234 149.441C185.632 148.976 187.065 148.363 187.966 147.194C185.658 146.13 183.206 144.295 183.263 141.748C183.3 140.075 184.456 138.629 185.758 137.583C187.125 136.485 188.716 135.669 190.404 135.202C190.541 134.782 189.807 134.692 189.443 134.939C189.079 135.187 188.526 135.493 188.284 135.125C188.219 135.026 188.206 134.903 188.194 134.785C187.287 125.528 185.943 116.314 184.168 107.184C183.635 104.439 182.842 101.381 180.429 99.9785C179.127 99.221 177.566 99.0938 176.064 98.9896C164.756 98.205 153.428 97.7243 142.095 97.5485C139.417 97.5069 136.421 97.6068 134.543 99.5227C133.119 100.976 132.711 103.135 132.56 105.167C132.093 111.461 133.437 117.725 134.311 123.975C135.358 131.461 135.735 139.023 136.425 146.551C136.517 147.552 136.629 148.596 137.169 149.444C138.095 150.897 139.976 151.353 141.678 151.592C144.194 151.946 146.738 152.095 149.278 152.039C151.481 151.99 153.679 151.787 155.88 151.677ZM77.8426 103.117C74.6236 101.698 70.9367 102.078 67.4439 102.485C62.1606 103.1 56.8772 103.715 51.5939 104.33C49.0545 104.626 46.5127 104.922 44.0005 105.397C43.3949 105.512 42.7872 105.638 42.2158 105.869C39.9766 106.777 38.6417 109.199 38.3311 111.601C38.0205 114.003 38.5528 116.425 39.0631 118.792C40.6492 126.151 42.0558 133.578 42.4374 141.096C42.5129 142.585 42.5509 144.093 42.9587 145.526C43.3666 146.959 44.1995 148.337 45.5017 149.055C46.5034 149.607 47.6802 149.722 48.8208 149.797C59.2754 150.486 69.7243 148.795 80.0659 147.11C81.5373 146.87 83.0853 146.597 84.2323 145.642C86.0037 144.167 86.2684 141.572 86.2557 139.263C86.2322 134.999 85.7174 130.738 84.7249 126.591C83.5641 121.741 81.7415 116.97 81.6932 111.983C81.6719 109.783 81.9598 107.413 80.8154 105.536C80.1392 104.427 79.0291 103.64 77.8426 103.117ZM28.0942 195.469C29.4996 205.597 29.9718 215.855 29.5028 226.069C29.478 226.608 30.1304 226.882 30.6582 226.983C37.4188 228.279 44.3812 226.618 50.9414 224.529C54.6706 223.342 58.4027 221.988 61.6278 219.766C63.1033 218.75 64.5962 217.218 64.3204 215.445C62.548 204.049 61.5731 192.529 61.4054 180.997C55.4362 185.675 47.8615 187.66 40.5201 189.533C37.0406 190.421 33.5139 191.315 29.9237 191.285C29.0558 191.278 28.3352 192.042 28.0926 192.878C27.8501 193.714 27.9746 194.607 28.0942 195.469M165.3 200.588C154.118 199.496 142.712 200.779 132.05 204.327C132.69 209.211 133.565 214.065 134.67 218.865C135.113 220.788 135.592 222.701 136.072 224.614C137.005 228.34 137.939 232.067 138.873 235.793C139.003 236.311 139.165 236.878 139.611 237.172C140.009 237.434 140.524 237.404 140.998 237.364C152.039 236.44 163.073 235.44 174.1 234.363C171.689 223.585 169.279 212.808 166.868 202.03C166.776 201.616 166.664 201.17 166.336 200.903C166.051 200.671 165.664 200.624 165.3 200.588ZM148.817 153.278C146.384 153.403 143.915 153.524 141.539 152.983C139.164 152.441 136.852 151.143 135.632 149.028C134.932 149.836 133.54 149.897 132.772 149.152C132.005 148.408 132.019 147.01 132.801 146.281C129.71 146.309 126.619 146.337 123.529 146.365C124.941 147.2 124.825 149.66 123.365 150.408C121.905 151.155 119.883 149.893 119.85 148.249C119.835 147.511 120.286 146.682 121.019 146.616C120.715 146.094 119.926 146.403 119.326 146.346C118.421 146.26 117.927 145.272 117.61 144.418C116.323 140.956 115.152 137.451 113.981 133.947C114.801 135.293 116.647 135.898 118.101 135.298C118.615 135.086 118.63 134.345 118.411 133.833C118.03 132.939 117.159 132.25 116.193 132.174C115.226 132.098 114.22 132.69 113.893 133.606C113.408 133.242 113.615 132.402 114.123 132.073C114.631 131.744 115.283 131.773 115.886 131.809C121.587 132.155 127.309 132.149 133.009 131.793C133.268 131.777 133.554 131.748 133.731 131.557C133.931 131.341 133.912 131.007 133.88 130.714C133.662 128.703 133.444 126.692 133.226 124.682C133.202 124.459 133.168 124.215 133.002 124.064C132.819 123.899 132.543 123.907 132.297 123.924C125.152 124.435 118.026 125.206 110.937 126.236C110.182 126.346 109.48 125.711 109.242 124.984C109.004 124.258 109.114 123.468 109.226 122.712C109.266 122.446 109.316 122.159 109.512 121.977C109.693 121.808 109.954 121.769 110.199 121.738C117.574 120.793 124.998 120.227 132.431 120.041C132.25 120.777 131.293 120.936 130.537 120.949C123.638 121.072 116.747 121.627 109.918 122.609C109.372 123.544 110.12 124.804 111.126 125.198C112.133 125.591 113.261 125.381 114.322 125.18C120.174 124.076 126.111 123.425 132.062 123.235C132.912 123.208 133.014 121.982 132.835 121.148C132.42 119.212 132.006 117.276 131.591 115.34C127.469 116.123 123.259 116.435 119.068 116.269C116.588 116.171 114.121 116.606 111.677 117.039C109.599 117.407 107.386 117.843 105.884 119.329C104.13 121.067 103.815 123.783 103.922 126.254C104.097 130.308 105.122 134.272 105.628 138.298C106.247 143.216 106.088 148.202 106.563 153.136C106.691 154.465 106.873 155.819 107.467 157.014C108.062 158.21 109.142 159.236 110.459 159.433C121.281 161.051 132.316 161.235 143.186 159.978C144.19 159.862 145.203 159.731 146.151 159.379C147.647 158.824 148.93 157.711 149.693 156.306C149.999 155.743 150.228 155.098 150.116 154.465C150.004 153.833 149.457 153.246 148.817 153.278ZM62.2973 181.007C63.4299 193.505 64.5625 206.002 65.6951 218.5C65.8986 220.746 66.0945 223.066 65.3945 225.21C64.6945 227.353 62.853 229.291 60.6053 229.365C61.9249 231.3 64.2024 232.408 66.5053 232.813C68.8083 233.218 71.1694 233.003 73.4976 232.788C92.681 231.01 111.864 229.232 131.048 227.455C130.636 225.05 130.224 222.646 129.813 220.242C129.72 219.702 129.456 219.018 128.912 219.059C115.722 220.044 102.532 221.03 89.3425 222.016C83.9262 222.421 78.4835 222.826 73.0703 222.382C70.3312 222.157 66.9483 221.065 66.678 218.322C64.5157 196.375 62.0123 174.462 59.1691 152.593C59.1254 152.257 59.0712 151.897 58.8418 151.648C58.5358 151.315 58.0291 151.289 57.5776 151.287C54.8805 151.273 52.1834 151.259 49.4862 151.246C50.274 155.727 51.2965 160.167 52.5482 164.542C52.7794 165.35 53.1642 166.294 53.9901 166.439C56.9557 166.962 59.2963 169.408 60.5164 172.169C61.7366 174.93 62.0247 178 62.2973 181.007ZM51.9349 103.216C49.6199 91.4396 47.6612 79.5928 46.0624 67.6974C45.972 67.0247 45.8845 66.3271 46.0819 65.6778C46.4888 64.3394 47.9483 63.6381 49.3057 63.3151C51.9594 62.6838 54.7306 62.8944 57.4506 63.0956C82.3185 64.9346 107.268 65.6705 132.2 65.3004C131.209 63.2831 129.215 61.9072 127.093 61.1776C124.972 60.448 122.705 60.286 120.468 60.131C98.5209 58.6097 76.5403 57.1842 54.5421 57.4498C51.8507 57.4823 49.1278 57.5445 46.5291 58.2474C43.9303 58.9503 41.4299 60.366 39.9307 62.608C37.5682 66.1409 38.1396 70.8077 38.8708 74.9979C40.5833 84.8107 42.6666 94.5584 45.1149 104.213C47.3882 103.881 49.6616 103.548 51.9349 103.216ZM105.48 80.1993C106.669 80.2118 107.904 80.145 108.955 79.5897C110.807 78.6119 111.63 76.3591 111.752 74.2635C111.874 72.168 111.462 70.0676 111.595 67.9727C111.625 67.4952 111.891 66.8624 112.353 66.9823C112.687 69.3939 113.022 71.8056 113.356 74.2172C113.541 75.5487 113.733 76.905 114.314 78.1162C114.896 79.3273 115.942 80.3918 117.258 80.6454C118.014 80.7911 118.803 80.6606 119.524 80.3889C121.249 79.7385 122.695 78.0826 122.629 76.2354C122.539 73.6849 122.448 71.1344 122.357 68.5839C122.322 67.5748 121.948 66.2304 120.942 66.2832C114.24 66.6355 107.517 66.6043 100.819 66.1901C100.33 66.1599 100.201 66.854 100.253 67.3421C100.521 69.8719 100.789 72.4017 101.057 74.9314C101.26 76.8414 101.692 79.0864 103.439 79.8724C104.073 80.1573 104.786 80.192 105.48 80.1993ZM139.856 238.942C139.535 239.168 139.323 239.515 139.128 239.856C138.111 241.631 137.294 243.52 136.697 245.478C148.43 244.655 160.153 243.7 171.864 242.612C172.304 242.571 172.781 242.513 173.097 242.203C173.302 242.002 173.407 241.722 173.506 241.452C173.945 240.258 174.383 239.063 174.821 237.869C175.035 237.288 175.224 236.565 174.807 236.108C174.461 235.729 173.871 235.741 173.36 235.782C162.653 236.642 151.951 237.569 141.255 238.561C140.768 238.606 140.257 238.66 139.856 238.942ZM160.538 166.444C160.221 162.731 159.575 158.564 156.554 156.396C155.375 159.651 154.185 162.956 153.915 166.409C153.646 169.862 154.407 173.543 156.716 176.118C157.04 176.48 157.401 176.831 157.573 177.286C157.745 177.741 157.658 178.342 157.237 178.583C154.098 175.844 152.798 171.45 152.872 167.277C152.945 163.105 154.221 159.059 155.484 155.082C155.761 154.209 154.967 153.29 154.076 153.086C153.185 152.882 152.264 153.181 151.399 153.476C151.23 153.534 151.156 153.727 151.103 153.897C150.504 155.81 149.9 157.838 150.364 159.788C152.361 168.19 152.103 177.009 154.136 185.402C154.211 185.712 154.293 186.029 154.473 186.292C155.821 183.647 157.169 181.003 158.518 178.359C159.151 177.116 159.788 175.865 160.184 174.527C160.953 171.925 160.769 169.147 160.538 166.444ZM208.236 105.455C208.497 105.67 208.846 105.738 209.182 105.776C212.995 106.204 216.593 103.601 218.704 100.388C220.816 97.1748 221.813 93.3789 223.198 89.7899C224.497 86.4216 226.158 83.1941 228.144 80.1814C224.168 83.9235 219.273 86.5438 215.123 90.0904C210.973 93.637 207.441 98.6114 207.733 104.072C207.76 104.577 207.847 105.133 208.236 105.455ZM55.5261 69.2679C56.0681 71.6509 55.844 74.299 57.1604 76.3559C58.4365 78.35 61.1284 79.3003 63.3685 78.5476C65.6087 77.7949 67.1864 75.4099 67.0072 73.0473C66.9665 72.5103 66.8457 71.9831 66.7252 71.4583C66.2532 69.4024 65.7813 67.3465 65.3093 65.2905C65.2623 65.086 65.2098 64.8708 65.0652 64.7191C64.8579 64.5016 64.5259 64.4763 64.2261 64.4648C61.3427 64.3541 58.4593 64.2434 55.5759 64.1326C55.2985 64.122 54.994 64.1199 54.7784 64.2952C54.5055 64.5171 54.4899 64.9248 54.5254 65.2753C54.6637 66.6424 55.2214 67.9282 55.5261 69.2679ZM133.577 71.4907C133.646 74.7823 135.785 77.6445 138.039 80.0371C138.26 80.2707 138.486 80.5053 138.761 80.6703C139.206 80.937 139.747 81.0002 140.264 80.9557C142.006 80.8055 143.496 79.4844 144.231 77.8934C144.966 76.3024 145.049 74.4825 144.891 72.7361C144.732 70.9897 144.347 69.27 144.191 67.5233C144.16 67.173 144.032 66.7157 143.681 66.7171C140.599 66.7289 137.516 66.7407 134.434 66.7526C134.039 66.7541 133.621 66.7622 133.288 66.9739C132.955 67.1856 132.769 67.68 133.016 67.9882C133.771 68.9299 133.552 70.2828 133.577 71.4907ZM180.455 173.309C172.009 173.16 164.267 178.182 158.359 184.237C157.364 185.258 156.391 186.329 155.729 187.593C155.611 187.816 155.519 188.128 155.711 188.291C155.813 188.378 155.96 188.383 156.094 188.383C161.007 188.365 165.733 186.284 169.725 183.411C173.717 180.537 177.081 176.891 180.455 173.309ZM75.95 77.9499C77.1565 77.2533 77.933 75.8662 77.8979 74.4704C77.8801 73.7625 77.6715 73.0756 77.5037 72.3877C77.0721 70.6178 76.9044 68.7834 77.0077 66.9642C77.0297 66.5768 77.0627 66.1787 76.9466 65.8085C76.8305 65.4383 76.5224 65.0979 76.136 65.0767C72.9445 64.9019 69.7529 64.7271 66.5614 64.5524C66.4466 64.5461 66.3214 64.5427 66.2287 64.6109C66.085 64.7166 66.0931 64.9309 66.1197 65.1076C66.5125 67.7124 67.7692 70.1661 67.8499 72.7993C67.8795 73.7682 67.7504 74.7611 68.0209 75.6917C68.3673 76.8835 69.3569 77.8242 70.5051 78.2879C71.6532 78.7516 72.9415 78.7779 74.1596 78.5575C74.7827 78.4447 75.4013 78.2667 75.95 77.9499ZM203.655 113.611C205.966 114.265 208.01 115.633 210.252 116.495C215.223 118.407 221.14 117.609 225.431 114.447C227.273 113.089 229.115 111.732 230.957 110.374C228.712 110.907 226.389 111.111 224.085 110.978C220.235 110.755 216.434 109.599 212.589 109.889C209.318 110.135 206.137 111.46 203.655 113.611ZM137.65 95.7713C137.196 93.2472 136.742 90.7231 136.287 88.199C135.679 84.816 135.07 81.4331 134.461 78.0501C134.417 77.8101 134.365 77.5526 134.188 77.3857C134.011 77.2188 133.665 77.2183 133.568 77.4422C132.96 78.8499 131.715 79.9658 130.252 80.414C129.364 80.686 129.288 81.9008 129.391 82.8259C130.119 89.3528 130.981 95.8646 131.976 102.356C132.265 99.7011 134.533 97.3955 137.176 97.07C137.691 97.0067 137.742 96.2826 137.65 95.7713ZM89.0899 75.2409C88.8075 72.5198 88.4513 69.8064 88.0218 67.1048C87.9332 66.5476 87.6967 65.8531 87.1347 65.8283C84.2298 65.7005 81.3249 65.5727 78.42 65.4449C78.3164 65.4403 78.2071 65.437 78.1155 65.4857C77.8811 65.6104 77.9194 65.9534 77.9885 66.2104C78.6584 68.705 79.0139 71.2844 79.044 73.8677C79.0514 74.5034 79.0441 75.1635 79.3093 75.7409C79.6997 76.5907 80.5885 77.0781 81.4333 77.4751C82.9054 78.1669 84.515 78.775 86.1214 78.5238C87.7278 78.2726 89.2582 76.8628 89.0899 75.2409ZM90.346 75.2561C90.6391 76.6798 91.1761 78.3361 92.5669 78.7453C93.7406 79.0907 95.0095 79.186 96.1868 78.8532C97.3641 78.5203 98.4376 77.7276 98.9644 76.6204C99.3393 75.8323 99.4239 74.9403 99.4728 74.0685C99.6066 71.6801 99.5146 69.279 99.1983 66.9079C99.1814 66.781 99.1626 66.6505 99.0987 66.5396C98.9291 66.2453 98.5297 66.204 98.1908 66.1966C95.2328 66.132 92.2749 66.0673 89.3169 66.0027C89.0753 65.9974 88.7379 66.2493 88.9422 66.3788C89.2732 69.3575 89.7418 72.3208 90.346 75.2561ZM189.739 104.72C187.428 109.96 186.748 115.909 187.815 121.538C188.242 123.786 189.08 126.172 191.021 127.376C191.592 127.731 192.544 127.835 192.755 127.196C195.21 119.768 194.065 111.233 189.739 104.72ZM39.9659 170.506C40.9461 171.181 42.0511 171.672 43.2076 171.949C44.669 172.298 46.1867 172.302 47.6885 172.338C51.1979 172.423 54.7029 172.693 58.1841 173.146C58.6698 173.209 59.0713 172.682 59.0584 172.191C59.0456 171.7 58.7478 171.266 58.4391 170.885C56.5824 168.591 53.871 167.01 50.9647 166.526C48.9059 166.184 46.8008 166.376 44.7147 166.316C42.6286 166.255 40.4512 165.901 38.7877 164.637C38.6996 165.839 38.6926 167.047 38.7667 168.25C38.7967 168.737 38.8457 169.241 39.093 169.661C39.3004 170.013 39.6298 170.275 39.9659 170.506ZM124.398 77.1506C124.726 77.7465 125.252 78.2057 125.79 78.6196C126.374 79.0681 127.004 79.4879 127.721 79.6525C129.486 80.058 131.29 78.7465 132.034 77.091C132.778 75.4356 132.702 73.5379 132.53 71.7303C132.4 70.3637 132.223 69.0015 131.999 67.6472C131.961 67.4213 131.918 67.1852 131.776 67.0056C131.528 66.6906 131.073 66.6541 130.673 66.6434C128.522 66.586 126.37 66.5287 124.219 66.4713C123.743 66.4586 123.066 66.6871 123.208 67.1435C123.841 69.1865 124.117 71.3403 124.02 73.4776C123.963 74.7247 123.798 76.0572 124.398 77.1506ZM200.536 115.084C202.82 111.387 203.504 106.732 202.38 102.531C201.386 98.8176 199.076 95.5277 198.343 91.7532C196.636 96.9483 194.917 102.541 196.462 107.787C197.253 110.475 198.852 112.847 200.536 115.084ZM162.695 173.247C169.489 171.493 175.76 167.751 180.539 162.601C181.969 161.06 183.433 159.551 184.93 158.075C181.264 158.579 177.685 159.716 174.398 161.421C169.385 164.022 164.985 168.072 162.695 173.247ZM204.085 128.022C206.583 125.667 209.082 123.312 211.58 120.957C203.131 122.037 195.24 126.934 190.505 134.036C191.725 134.979 193.476 134.423 194.9 133.833C196.88 133.012 198.877 132.181 200.64 130.959C201.881 130.099 202.985 129.059 204.085 128.022ZM39.75 179.494C39.7711 179.712 39.7968 179.942 39.9282 180.116C40.2158 180.498 40.8022 180.405 41.2601 180.27C46.5034 178.734 51.673 176.944 56.7453 174.911C57.111 174.764 57.5376 174.532 57.5449 174.137C53.6537 173.866 49.7624 173.596 45.8712 173.325C44.9195 173.259 43.964 173.192 43.031 172.992C41.6275 172.692 40.2892 172.089 39.1334 171.235C39.2181 173.995 39.4842 176.746 39.75 179.494ZM162.671 153.088C162.357 153.316 162.23 153.717 162.122 154.09C161.752 155.37 161.38 156.728 161.724 158.016C161.899 158.672 162.251 159.265 162.598 159.848C163.56 161.46 164.522 163.072 165.484 164.685C165.573 164.835 165.67 164.992 165.825 165.073C166.284 165.315 166.737 164.747 166.951 164.273C168.335 161.193 169.751 157.937 169.437 154.574C169.388 154.057 169.248 153.47 168.788 153.233C168.576 153.124 168.33 153.11 168.093 153.099C166.667 153.028 165.241 152.957 163.815 152.886C163.42 152.866 162.991 152.856 162.671 153.088ZM184.465 141.688C184.429 143.856 186.314 145.668 188.381 146.298C190.449 146.929 192.668 146.658 194.817 146.426C198.595 146.019 202.592 145.684 205.698 143.488C206.387 143.001 207.038 142.4 207.346 141.612C207.826 140.384 207.343 138.934 206.441 137.974C205.538 137.014 204.286 136.465 203.033 136.063C198.556 134.626 193.586 134.791 189.214 136.524C186.907 137.437 184.507 139.201 184.465 141.688ZM39.3943 163.827C39.8013 164.208 40.6262 164.306 40.7849 163.77C41.3286 161.937 42.551 160.365 43.991 159.111C45.431 157.856 47.0912 156.887 48.7403 155.927C49.1852 155.667 49.1572 155.025 49.0712 154.516C48.9047 153.531 48.7382 152.545 48.5716 151.56C48.5294 151.31 48.4462 151.012 48.2026 150.946C48.0033 150.891 47.8063 151.026 47.6434 151.154C46.4603 152.08 45.2772 153.007 44.0941 153.934C41.7236 155.79 39.1831 157.921 38.669 160.893C38.4899 161.928 38.6281 163.11 39.3943 163.827ZM48.6231 157.194C45.9661 158.858 43.1536 160.701 41.9461 163.6C41.8709 163.781 41.8016 163.97 41.8075 164.166C41.8191 164.551 42.129 164.877 42.4843 165.025C42.8395 165.173 43.2353 165.18 43.62 165.184C45.8946 165.211 48.1692 165.238 50.4438 165.265C50.5544 165.266 50.6744 165.264 50.7617 165.196C50.8997 165.088 50.8856 164.879 50.8583 164.705C50.4954 162.405 50.1326 160.106 49.7698 157.806C49.7181 157.479 49.6128 157.087 49.2946 156.998C49.0631 156.933 48.827 157.066 48.6231 157.194ZM161.631 153.229C159.956 152.796 158.15 152.891 156.529 153.496C156.843 154.529 157.399 155.487 158.14 156.271C160.637 158.911 161.375 162.744 161.659 166.372C161.81 168.31 161.863 170.255 161.819 172.198C162.915 170.502 164.012 168.805 165.109 167.108C165.218 166.939 165.33 166.76 165.342 166.56C165.354 166.359 165.263 166.168 165.171 165.989C164.089 163.893 162.498 162.085 161.494 159.95C160.49 157.815 160.182 155.09 161.631 153.229ZM49.4279 64.4019C48.5041 64.5489 47.4509 64.7843 47.0121 65.6127C46.7088 66.1855 46.7983 66.8785 46.8958 67.5196C47.2972 70.16 47.6987 72.8004 48.1001 75.4407C50.1546 71.7355 52.0783 67.9592 54.0015 64.1838C53.6456 63.7802 53.0147 63.8312 52.4841 63.9157C51.4653 64.0778 50.4466 64.2398 49.4279 64.4019ZM175.881 154.056C176.165 154.434 176.908 154.015 176.733 153.575C179.477 154.365 182.468 153.803 185.06 152.602C187.651 151.402 189.914 149.603 192.141 147.811C191.206 147.68 190.271 147.549 189.335 147.418C189.145 147.392 188.897 147.395 188.824 147.574C188.32 148.811 187.236 149.737 186.039 150.322C184.842 150.906 183.524 151.19 182.222 151.468C181.318 151.661 180.414 151.854 179.51 152.047C178.11 152.346 176.532 152.777 175.881 154.056ZM126.241 134.909C126.417 134.864 126.606 134.811 126.718 134.668C126.893 134.447 126.805 134.129 126.76 133.85C126.714 133.572 126.784 133.201 127.061 133.153C127.314 133.203 127.431 133.504 127.437 133.762C127.443 134.021 127.386 134.29 127.479 134.531C127.687 135.067 128.425 135.089 128.994 135.016C129.331 134.973 129.667 134.93 130.004 134.887C130.109 134.873 130.222 134.857 130.301 134.785C130.55 134.556 130.203 134.182 130.126 133.852C130.066 133.598 130.185 133.322 130.107 133.072C129.975 132.647 129.41 132.581 128.966 132.596C125.568 132.709 122.169 132.822 118.771 132.935C118.829 133.58 119.005 134.215 119.288 134.797C119.348 134.923 119.42 135.052 119.541 135.122C119.663 135.192 119.813 135.187 119.954 135.181C120.799 135.141 121.644 135.102 122.489 135.063C122.56 135.059 122.636 135.055 122.696 135.015C122.85 134.913 122.797 134.677 122.726 134.506C122.604 134.211 122.482 133.916 122.36 133.622C122.254 133.365 122.716 133.213 122.911 133.411C123.106 133.608 123.113 133.917 123.205 134.179C123.396 134.722 123.972 135.054 124.542 135.124C125.112 135.194 125.685 135.051 126.241 134.909ZM175.596 152.952C175.781 152.754 175.372 152.548 175.104 152.581C173.574 152.769 172.043 152.957 170.513 153.145C170.309 153.17 170.038 153.283 170.087 153.484C170.59 155.549 170.401 157.777 169.559 159.728C169.398 160.099 169.293 160.666 169.677 160.791C171.272 157.918 173.271 155.271 175.596 152.952ZM123.456 136.466C123.408 136.3 123.354 136.125 123.227 136.006C123.083 135.872 122.875 135.838 122.68 135.816C121.678 135.706 120.656 135.775 119.677 136.019C119.983 137.015 120.289 138.012 120.595 139.008C120.653 139.197 120.732 139.408 120.914 139.482C121.008 139.52 121.112 139.514 121.213 139.507C122.203 139.437 123.193 139.367 124.183 139.298C123.968 138.347 123.725 137.403 123.456 136.466ZM117.01 139.95C117.12 140.01 117.255 139.992 117.379 139.971C118.275 139.825 119.171 139.678 120.067 139.532C119.744 138.492 119.42 137.453 119.097 136.413C119.05 136.261 118.991 136.094 118.85 136.018C118.74 135.958 118.605 135.971 118.48 135.985C117.681 136.078 116.882 136.171 116.083 136.265C115.932 136.282 115.755 136.32 115.699 136.461C115.661 136.557 115.697 136.664 115.732 136.761C116.084 137.714 116.436 138.666 116.788 139.619C116.836 139.747 116.891 139.885 117.01 139.95ZM127.08 135.797C126.89 135.632 126.61 135.644 126.36 135.664C125.57 135.729 124.781 135.794 123.992 135.859C124.228 136.874 124.525 137.874 124.881 138.852C124.927 138.981 124.98 139.116 125.089 139.198C125.224 139.301 125.41 139.295 125.58 139.285C126.119 139.252 126.658 139.22 127.196 139.187C127.445 139.172 127.746 139.119 127.829 138.884C127.869 138.771 127.844 138.647 127.817 138.53C127.654 137.798 127.49 137.066 127.326 136.334C127.282 136.138 127.23 135.929 127.08 135.797ZM122.371 143.085C122.293 143.097 122.21 143.112 122.153 143.167C122.042 143.274 122.093 143.459 122.151 143.601C122.359 144.11 122.566 144.619 122.773 145.128C122.85 145.317 122.937 145.518 123.109 145.627C123.267 145.728 123.467 145.73 123.655 145.729C124.371 145.725 125.087 145.72 125.804 145.716C125.908 145.715 126.022 145.712 126.103 145.645C126.249 145.523 126.195 145.29 126.127 145.112C125.852 144.383 125.576 143.655 125.301 142.927C125.212 142.693 124.888 142.689 124.642 142.728C123.885 142.847 123.128 142.966 122.371 143.085ZM128.397 135.653C128.246 135.654 128.077 135.662 127.975 135.774C127.853 135.908 127.892 136.119 127.938 136.295C128.142 137.067 128.345 137.839 128.549 138.611C128.585 138.747 128.627 138.892 128.735 138.981C128.879 139.099 129.088 139.077 129.272 139.049C129.951 138.945 130.63 138.84 131.309 138.736C131.236 137.946 131.111 137.161 130.934 136.387C130.879 136.145 130.803 135.881 130.594 135.748C130.438 135.649 130.241 135.646 130.056 135.647C129.503 135.649 128.95 135.651 128.397 135.653ZM129.779 145.625C129.559 144.824 129.339 144.022 129.119 143.221C129.035 142.915 128.916 142.568 128.621 142.453C128.475 142.396 128.313 142.409 128.158 142.422C127.433 142.485 126.709 142.548 125.984 142.612C126.175 143.329 126.402 144.038 126.662 144.733C126.793 145.083 126.992 145.48 127.36 145.54C128.158 145.67 128.973 145.698 129.779 145.625ZM131.04 145.57C131.696 145.623 132.417 145.66 132.948 145.269C132.718 144.371 132.488 143.473 132.258 142.575C132.206 142.373 132.137 142.148 131.952 142.052C131.816 141.981 131.654 142.001 131.502 142.022C130.852 142.113 130.201 142.203 129.55 142.294C129.705 143.245 129.967 144.177 130.331 145.068C130.387 145.205 130.45 145.347 130.566 145.437C130.698 145.539 130.874 145.556 131.04 145.57ZM189.561 132.79C190.062 131.758 190.564 130.725 191.066 129.693C191.118 129.584 191.172 129.467 191.153 129.348C191.135 129.232 191.05 129.139 190.97 129.054C190.256 128.296 189.542 127.539 188.828 126.782C188.531 127.188 188.565 127.741 188.613 128.242C188.768 129.888 188.923 131.535 189.079 133.181C189.297 133.229 189.463 132.992 189.561 132.79ZM131.761 135.534C131.668 135.527 131.561 135.526 131.495 135.593C131.422 135.669 131.438 135.791 131.46 135.895C131.601 136.578 131.742 137.262 131.883 137.945C131.936 138.199 131.998 138.47 132.188 138.644C132.805 139.208 133.993 138.238 134.566 138.846C134.667 137.876 134.595 136.887 134.353 135.942C134.336 135.876 134.316 135.805 134.265 135.76C134.207 135.707 134.122 135.699 134.043 135.693C133.282 135.64 132.522 135.587 131.761 135.534ZM117.574 140.603C117.491 140.614 117.406 140.627 117.338 140.675C117.188 140.782 117.194 141.003 117.215 141.186C117.273 141.675 117.336 142.181 117.591 142.602C117.846 143.022 118.35 143.334 118.824 143.206C119.503 143.023 120.182 142.841 120.861 142.658C120.832 142.007 120.7 141.361 120.473 140.75C120.417 140.598 120.345 140.437 120.206 140.355C120.061 140.269 119.879 140.289 119.713 140.312C119 140.409 118.287 140.506 117.574 140.603ZM133.414 134.891C133.619 134.859 133.837 134.822 133.989 134.681C134.441 134.262 133.924 133.41 134.291 132.914C134.434 132.72 134.083 132.547 133.843 132.557C132.77 132.603 131.697 132.648 130.624 132.693C130.666 133.139 130.743 133.58 130.855 134.013C130.979 134.496 131.448 134.826 131.934 134.933C132.419 135.04 132.923 134.965 133.414 134.891ZM124.743 140.686C124.605 140.021 123.717 139.865 123.05 139.99C122.384 140.114 121.64 140.356 121.073 139.982C121.109 140.685 121.273 141.381 121.554 142.025C121.613 142.161 121.684 142.302 121.813 142.375C121.957 142.457 122.136 142.431 122.3 142.402C122.957 142.289 123.614 142.175 124.271 142.061C124.597 142.005 125.026 141.746 124.854 141.463C124.718 141.237 124.797 140.945 124.743 140.686ZM120.685 143.419C120.148 143.51 119.612 143.601 119.075 143.692C118.784 143.741 118.426 143.858 118.395 144.152C118.317 144.895 119.055 145.495 119.785 145.643C120.516 145.791 121.274 145.646 122.015 145.719C121.985 145.088 121.853 144.461 121.626 143.871C121.573 143.73 121.509 143.585 121.39 143.494C121.197 143.344 120.925 143.378 120.685 143.419ZM134.83 141.977C134.118 141.901 133.394 141.939 132.693 142.089C133.08 143.013 133.355 143.985 133.51 144.976C133.581 145.43 134.228 145.439 134.672 145.326C134.838 145.283 135.018 145.231 135.113 145.088C135.195 144.965 135.191 144.806 135.184 144.658C135.146 143.842 135.108 143.026 135.07 142.21C135.067 142.159 135.064 142.104 135.034 142.062C134.991 142 134.906 141.985 134.83 141.977ZM123.2 149.287C123.871 148.615 123.527 147.257 122.617 146.989C121.706 146.72 120.684 147.674 120.885 148.604C121.094 149.565 122.505 149.982 123.2 149.287ZM128.479 141.406C128.906 140.846 128.266 140.02 127.574 139.899C126.882 139.777 126.181 140.043 125.478 140.033C125.22 140.029 125.209 140.42 125.293 140.665C125.402 140.983 125.51 141.3 125.619 141.618C125.664 141.748 125.744 141.904 125.881 141.895C126.382 141.864 126.883 141.832 127.384 141.801C127.784 141.776 128.235 141.725 128.479 141.406ZM135.402 146.805C135.351 146.665 135.274 146.528 135.153 146.44C135.045 146.36 134.91 146.327 134.777 146.311C133.726 146.184 132.705 147.236 132.86 148.286C133.308 148.82 134.15 148.967 134.751 148.617C135.352 148.267 135.642 147.46 135.402 146.805ZM128.913 140.454C128.89 140.916 129.295 141.311 129.739 141.435C130.183 141.56 130.656 141.479 131.11 141.398C131.342 141.357 131.603 141.296 131.724 141.094C131.984 140.661 131.469 139.867 131.944 139.701C131.625 139.657 131.306 139.613 130.987 139.569C130.565 139.511 130.13 139.454 129.721 139.571C129.312 139.688 128.934 140.028 128.913 140.454ZM132.728 141.045C133.211 141.467 134.021 141.409 134.47 140.951C134.919 140.492 134.978 139.716 134.639 139.171C133.793 139.328 132.946 139.485 132.1 139.643C132.207 140.154 132.335 140.703 132.728 141.045M198.124 132.932C197.465 133.177 196.805 133.422 196.146 133.667C195.819 133.789 195.487 133.913 195.204 134.117C196.282 134.539 197.641 133.987 198.124 132.932ZM136.868 80.4725C136.851 80.1805 136.543 79.942 136.257 79.999C136.275 80.296 136.571 80.5459 136.866 80.5139L136.868 80.4725Z" fill="#00160A"/>
</svg>
