<svg width="25" height="25" viewBox="0 0 25 25" fill="none" xmlns="http://www.w3.org/2000/svg">
<path d="M8.88184 19.6436C8.88184 19.7412 8.76953 19.8193 8.62793 19.8193C8.4668 19.834 8.35449 19.7559 8.35449 19.6436C8.35449 19.5459 8.4668 19.4678 8.6084 19.4678C8.75488 19.4531 8.88184 19.5312 8.88184 19.6436ZM7.36328 19.4238C7.3291 19.5215 7.42676 19.6338 7.57324 19.6631C7.7002 19.7119 7.84668 19.6631 7.87598 19.5654C7.90527 19.4678 7.8125 19.3555 7.66602 19.3115C7.53906 19.2773 7.39746 19.3262 7.36328 19.4238ZM9.52148 19.3408C9.37988 19.375 9.28223 19.4678 9.29688 19.5801C9.31152 19.6777 9.43848 19.7412 9.58496 19.707C9.72656 19.6729 9.82422 19.5801 9.80957 19.4824C9.79492 19.3896 9.66309 19.3262 9.52148 19.3408ZM12.7344 0.629883C5.96191 0.629883 0.78125 5.77148 0.78125 12.5439C0.78125 17.959 4.18945 22.5928 9.05762 24.2236C9.68262 24.3359 9.90234 23.9502 9.90234 23.6328C9.90234 23.3301 9.8877 21.6602 9.8877 20.6348C9.8877 20.6348 6.46973 21.3672 5.75195 19.1797C5.75195 19.1797 5.19531 17.7588 4.39453 17.3926C4.39453 17.3926 3.27637 16.626 4.47266 16.6406C4.47266 16.6406 5.68848 16.7383 6.35742 17.9004C7.42676 19.7852 9.21875 19.2432 9.91699 18.9209C10.0293 18.1396 10.3467 17.5977 10.6982 17.2754C7.96875 16.9727 5.21484 16.5771 5.21484 11.8799C5.21484 10.5371 5.58594 9.86328 6.36719 9.00391C6.24023 8.68652 5.8252 7.37793 6.49414 5.68848C7.51465 5.37109 9.86328 7.00684 9.86328 7.00684C10.8398 6.7334 11.8896 6.5918 12.9297 6.5918C13.9697 6.5918 15.0195 6.7334 15.9961 7.00684C15.9961 7.00684 18.3447 5.36621 19.3652 5.68848C20.0342 7.38281 19.6191 8.68652 19.4922 9.00391C20.2734 9.86816 20.752 10.542 20.752 11.8799C20.752 16.5918 17.876 16.9678 15.1465 17.2754C15.5957 17.6611 15.9766 18.3936 15.9766 19.541C15.9766 21.1865 15.9619 23.2227 15.9619 23.623C15.9619 23.9404 16.1865 24.3262 16.8066 24.2139C21.6895 22.5928 25 17.959 25 12.5439C25 5.77148 19.5068 0.629883 12.7344 0.629883ZM5.52734 17.4707C5.46387 17.5195 5.47852 17.6318 5.56152 17.7246C5.63965 17.8027 5.75195 17.8369 5.81543 17.7734C5.87891 17.7246 5.86426 17.6123 5.78125 17.5195C5.70312 17.4414 5.59082 17.4072 5.52734 17.4707ZM5 17.0752C4.96582 17.1387 5.01465 17.2168 5.1123 17.2656C5.19043 17.3145 5.28809 17.2998 5.32227 17.2314C5.35645 17.168 5.30762 17.0898 5.20996 17.041C5.1123 17.0117 5.03418 17.0264 5 17.0752ZM6.58203 18.8135C6.50391 18.877 6.5332 19.0234 6.64551 19.1162C6.75781 19.2285 6.89941 19.2432 6.96289 19.165C7.02637 19.1016 6.99707 18.9551 6.89941 18.8623C6.79199 18.75 6.64551 18.7354 6.58203 18.8135ZM6.02539 18.0957C5.94727 18.1445 5.94727 18.2715 6.02539 18.3838C6.10352 18.4961 6.23535 18.5449 6.29883 18.4961C6.37695 18.4326 6.37695 18.3057 6.29883 18.1934C6.23047 18.0811 6.10352 18.0322 6.02539 18.0957Z" fill="#D8D8D8"/>
</svg>
